<?xml version="1.0" encoding="UTF-8"?>
<svg width="500px" height="230px" viewBox="0 0 500 230" version="1.1" xmlns="http://www.w3.org/2000/svg" xmlns:xlink="http://www.w3.org/1999/xlink">
    <title>collective-care_logo-v_blk</title>
    <g id="collective-care_logo-v_blk" stroke="none" stroke-width="1" fill="none" fill-rule="evenodd">
        <g id="VISAP-LOGO-2025-SMALL" transform="translate(-0.4408, 0)" fill="#000000" fill-rule="nonzero">
            <path d="M135.705579,0 L153.187256,0 C153.217471,31.3047965 153.189774,62.609593 153.199846,93.9169074 C153.212435,95.7751025 153.061362,97.6861731 153.663137,99.4789033 C154.662737,102.820129 157.437447,105.557065 160.796305,106.508823 C162.584004,107.067792 164.477454,106.906648 166.323064,106.924273 C165.12455,103.907853 164.406953,100.697557 164.298684,97.4494924 C164.253362,95.8556746 164.288612,94.259339 164.278541,92.6630034 C164.283576,61.7761749 164.265951,30.8868285 164.286094,0 L181.772807,0 C181.787915,32.0601604 181.772807,64.1203207 181.777843,96.1779632 C181.750146,98.46168 182.450118,100.75295 183.809776,102.59352 C185.627689,105.103846 188.598794,106.750539 191.700829,106.901612 C193.093219,106.959523 194.488128,106.909166 195.885554,106.926791 C190.897623,99.7936383 188.279023,91.0440068 188.568579,82.3422151 C188.795189,73.6026551 192.033189,64.9889892 197.587644,58.241072 C202.77197,51.8834261 209.942907,47.1674377 217.854102,44.9819182 C226.749791,42.4942532 236.504078,43.2042953 244.923886,47.0113292 C252.706669,50.4834851 259.295975,56.5213602 263.4807,63.9415513 C269.188746,54.2703759 279.126839,47.2127595 290.170284,45.1153659 C301.614072,42.8089882 313.997031,45.8304437 323.036239,53.2330095 C325.637215,55.4890296 329.061539,56.6799867 332.490898,56.73538 C332.495934,46.4548778 332.495934,36.1743756 332.490898,25.8938733 C329.421596,25.8888376 326.352294,25.8963912 323.28551,25.8913555 C323.280474,20.0523928 323.280474,14.2134301 323.28551,8.37194952 C326.65444,8.36943164 330.023371,8.37698528 333.394819,8.36943164 C333.399855,5.57962109 333.392301,2.78981055 333.399855,0 L350.914264,0 C350.921818,2.79232843 350.911747,5.58465685 350.9193,8.37698528 C352.691891,8.46259318 354.52743,8.17555491 356.040679,7.19609977 C358.364687,5.79867661 359.782256,3.15490308 359.82506,0.463289838 C365.651447,0.460771959 371.480351,0.458254079 377.307715,0.463289838 C377.382274,8.72193478 373.07669,16.8194354 366.245668,21.4397444 C361.789011,24.5367363 356.327718,26.0449461 350.9193,25.8989091 C350.914264,58.6766651 350.9193,91.4569391 350.914264,124.234695 C344.77566,124.239731 338.634538,124.234695 332.495934,124.234695 C332.490898,107.573886 332.498452,90.9105592 332.490898,74.2497502 C325.264568,74.1893211 318.033201,71.7469779 312.415799,67.1644371 C309.479945,64.6918794 305.909584,62.9822392 302.137792,62.2721971 C296.326513,61.1416692 290.094747,62.4232699 285.220121,65.787157 C280.730732,68.8237197 277.422231,73.5472618 276.128038,78.8121479 C274.49393,85.1924547 275.783087,92.272732 279.665666,97.6081188 C282.382465,101.372349 286.287705,104.275464 290.694004,105.748423 C295.911062,107.515975 301.780252,107.286848 306.836166,105.091257 C309.452249,103.968283 311.826614,102.316554 313.848476,100.317357 C317.980326,104.439126 322.104622,108.570966 326.231436,112.697771 C320.812947,118.141427 313.805672,121.993782 306.282231,123.562421 C304.361085,123.980389 302.404688,124.196927 300.450809,124.38325 L161.760656,124.38325 C153.733637,123.83687 146.059123,119.639565 141.277659,113.171132 C139.280976,110.519805 137.790388,107.503385 136.828556,104.330857 C132.658938,111.587386 126.198045,117.522028 118.538638,120.921166 C114.187732,122.890147 109.481805,123.987943 104.730555,124.38325 L98.0304628,124.38325 C86.795659,124.21707 75.5583373,124.176784 64.3210156,124.055926 C59.111511,123.957728 53.9045244,124.060961 48.6975378,124.219588 C41.5366722,124.393322 34.2071084,124.368143 27.3206923,122.144855 C19.9483244,119.828406 13.5503781,114.946237 8.81927176,108.898291 C3.45365836,102.01189 0.472482268,93.3226878 0.442754695,84.5957173 C0.364213203,76.7374152 2.68318549,68.8715595 7.03660902,62.3250726 C11.7274292,55.2145808 18.7523289,49.6878351 26.756686,46.7746485 C33.5776371,44.2643226 41.0884887,43.6826924 48.2166217,45.1052943 C55.9591188,46.61854 63.2131461,50.4885208 68.7902618,56.0681419 C64.6659658,60.1999823 60.539152,64.3267869 56.4073023,68.4510736 C53.8063269,65.8752828 50.5884696,63.9163725 47.0810555,62.8487916 C42.4682898,61.4136002 37.3922332,61.5344584 32.8449325,63.1660444 C27.2552273,65.1576871 22.5392283,69.4733327 20.0465219,74.8565592 C16.6549305,82.0803556 17.5059757,91.0717035 22.194278,97.5325824 C25.1150249,101.510832 29.2493924,104.819326 34.1416434,105.919639 C39.1648244,107.060239 44.3592216,106.763129 49.4705286,106.685075 C55.9012074,106.448394 62.336922,106.508823 68.7701187,106.591913 C62.928625,97.8775319 60.7330291,86.8139692 62.8430169,76.5334669 C64.5979829,67.7259243 69.4298047,59.5805839 76.2960776,53.7970146 C82.1929648,48.7813985 89.5879937,45.5736199 97.2725794,44.6571118 C104.257193,43.7909612 111.460863,44.8333634 117.914202,47.6332454 C125.143051,50.7403088 131.410067,56.0278559 135.700544,62.6221824 C135.703061,41.7489609 135.69299,20.8732215 135.705579,0 M216.801626,64.3695908 C212.740277,66.8572558 209.517384,70.6642897 207.714579,75.0705789 C221.598198,75.0252571 235.481817,74.922024 249.365436,74.8615949 C247.713703,70.9488101 244.944029,67.5169403 241.456758,65.0871865 C237.760503,62.4862169 233.258524,61.0485077 228.736402,61.0334004 C224.549159,60.9931143 220.361916,62.1639283 216.801626,64.3695908 M98.7102918,62.128678 C94.5356381,62.7581479 90.5498258,64.5936821 87.3672189,67.3683854 C83.6029805,70.6240036 80.9592011,75.1536689 79.9998868,80.0383553 C78.9474108,85.2453302 79.8488137,90.8148798 82.4648964,95.4377066 C85.1111938,100.163767 89.5275645,103.85246 94.6363536,105.64519 C101.975989,108.28141 110.647586,106.73795 116.579723,101.659387 C120.29864,98.5321806 122.97767,94.1838026 124.062878,89.4451533 C125.266427,84.2558035 124.531205,78.6484858 122.046052,73.9375331 C119.747223,69.5413154 115.94018,65.9608907 111.42813,63.9088189 C107.482604,62.0909098 103.003286,61.4639578 98.7102918,62.128678 M207.900902,92.6000564 C210.509431,98.7613077 215.80958,103.786995 222.222633,105.796263 C224.566784,106.596949 227.049419,106.725361 229.496804,106.929309 C241.262881,106.921755 253.031477,106.929309 264.797554,106.924273 C261.808825,102.530573 259.71898,97.5351003 258.681611,92.3230896 C241.753869,92.4061797 224.828644,92.4867518 207.900902,92.6000564 Z" id="Shape"></path>
            <path d="M438.551777,49.6651742 C446.671957,44.5186284 456.695658,42.542093 466.175496,44.1006604 C474.431642,45.4024041 482.211907,49.4259757 488.086133,55.3656535 C494.151719,61.4010108 498.182853,69.4380824 499.356187,77.9157828 C499.628119,80.4386981 500.073785,83.0572929 499.371295,85.5474757 C498.321336,89.3922778 494.604938,92.2903572 490.619126,92.3608578 C473.396791,92.3734472 456.174456,92.3558221 438.952121,92.3684115 C440.838017,96.8452013 444.219537,100.664825 448.414334,103.109686 C451.790818,105.083703 455.696058,106.131141 459.606333,106.148766 C470.712725,106.153802 481.819117,106.146248 492.925508,106.151284 C492.925508,111.982693 492.925508,117.814102 492.922991,123.645511 C481.738544,123.650547 470.55158,123.645511 459.367134,123.648029 C451.413135,123.612779 443.486832,121.125114 436.960474,116.572788 C432.944447,113.788013 429.454658,110.262981 426.674913,106.246964 C425.491507,109.273455 424.32069,112.302464 423.139802,115.328955 C421.827984,118.685289 419.083489,121.447402 415.734701,122.781879 C411.889891,124.358071 407.322447,124.00305 403.774747,121.835156 C401.390309,120.402482 399.479234,118.204374 398.394026,115.64369 C391.522717,99.3404199 384.656444,83.034632 377.787653,66.728844 C377.415006,65.8929079 377.223647,64.8530237 376.307137,64.427502 C376.251743,84.2381784 376.302101,104.048855 376.281958,123.859913 C370.450536,123.857013 364.616596,123.864567 358.785174,123.854495 C358.785174,109.17274 358.785174,94.4909839 358.785174,79.8092282 C358.747405,73.8519252 358.870782,67.8921043 358.697048,61.939837 C358.704601,56.7227906 358.697048,51.5057442 358.702083,46.2886977 C362.884291,46.2861799 367.069016,46.283662 371.253741,46.2886977 C375.818667,46.3440911 380.522077,46.910614 384.621194,49.0608831 C388.357735,50.9618822 391.379198,54.1746965 393.114021,57.9867661 C398.920264,71.787264 404.729025,85.5877618 410.550376,99.380706 C414.302025,89.744781 418.048638,80.106338 421.797769,70.470413 C422.943407,67.3885284 424.202349,64.324269 426.000119,61.5546015 C428.450022,57.6669954 431.6427,54.247715 435.346509,51.5284051 C436.358699,50.8158452 437.338157,50.0025701 438.551777,49.6651742 M446.938853,65.1375441 C443.4541,67.5572263 440.676872,70.9689531 438.994925,74.8615949 C452.820633,74.8666307 466.648858,74.8691486 480.474566,74.8615949 C478.918513,71.2408841 476.418253,68.0331056 473.270896,65.661263 C469.451265,62.75563 464.684908,61.1139726 459.883301,61.0963474 C455.285642,61.0434719 450.700573,62.5013242 446.938853,65.1375441 Z" id="Shape"></path>
            <path d="M19.486521,153.967208 C26.7329946,149.613794 35.3844482,147.69517 43.7941848,148.503409 C51.6248079,149.226041 59.211196,152.335622 65.2893709,157.326059 C67.721648,159.383167 70.8639688,160.526284 74.0365042,160.669803 C75.6076645,160.74534 77.3475232,160.501105 78.5032325,159.327773 C85.7522241,152.385979 95.6978707,148.344783 105.741715,148.332193 C113.824126,148.231478 121.891431,150.716625 128.566344,155.268952 C128.563826,153.113647 128.561308,150.955824 128.566344,148.800519 C134.397766,148.795483 140.229189,148.795483 146.060611,148.800519 C146.0732,166.51632 146.050539,184.234638 146.0732,201.950439 C146.080754,206.054582 149.207967,209.796151 153.191262,210.684963 C153.206369,199.548381 153.19378,188.4118 153.198815,177.272701 C153.208887,175.344005 153.130832,173.405238 153.352406,171.481578 C153.694839,168.258692 154.659189,165.101271 156.16992,162.233406 C159.760424,155.331899 166.593965,150.218085 174.250854,148.792965 C177.143904,148.178603 180.109973,148.35989 183.048345,148.334711 C196.899231,148.334711 210.750118,148.334711 224.601004,148.337229 C227.128961,148.261693 229.661954,148.435426 232.164731,148.840805 C240.546771,150.155138 248.432788,154.284461 254.3473,160.362622 C260.246705,166.350139 264.177124,174.24621 265.347941,182.575355 C265.624908,185.078128 266.060502,187.669026 265.413406,190.149137 C264.388626,194.160119 260.475833,197.148842 256.341465,197.11611 C239.212292,197.128699 222.085637,197.113592 204.956464,197.123663 C207.731173,203.725544 213.801795,208.849429 220.819141,210.350085 C223.790245,211.06768 226.862065,210.853661 229.891081,210.883875 C244.074329,210.883875 258.257576,210.883875 272.440823,210.883875 L272.440823,228.383138 L224.079802,228.383138 C215.717905,228.030635 207.479385,225.036876 200.932883,219.804722 C194.794279,214.955286 190.080798,208.298013 187.666146,200.847607 C184.624541,191.566703 185.105457,181.170379 189.083715,172.241978 C190.063173,169.998547 191.281829,167.865903 192.649041,165.836492 C188.610353,165.831456 184.571665,165.83901 180.532977,165.831456 C179.06505,165.80376 177.551801,165.821385 176.174518,166.382872 C173.062412,167.531025 170.783726,170.650678 170.723296,173.979315 C170.690564,192.113083 170.758547,210.24937 170.690564,228.383138 L154.06245,228.383138 C149.782045,228.164083 145.546962,226.96809 141.845671,224.797678 C138.617742,222.934447 135.820372,220.36621 133.612186,217.369933 C128.218876,222.496336 121.385336,226.104457 114.088504,227.582452 C112.074196,228.01301 110.02212,228.209404 107.975079,228.383138 L104.301484,228.383138 C96.3021631,228.002938 88.428736,225.225717 82.0383434,220.386353 C75.4716987,215.471452 70.463625,208.501961 67.9457398,200.691499 C65.5033912,193.195771 65.3800148,184.97993 67.5202172,177.398595 C63.423618,176.46698 59.5057886,174.752304 56.0789468,172.320032 C54.7923075,171.428703 53.6441518,170.35105 52.3272978,169.50756 C47.9235166,166.601927 42.474813,165.342988 37.2451654,166.002672 C29.8879048,166.846162 23.127383,171.60999 19.8793111,178.264746 C17.6811973,182.676071 16.9988504,187.810027 17.9304679,192.646874 C18.6782798,196.625123 20.5238897,200.396907 23.2356521,203.405773 C26.2067566,206.724338 30.1724258,209.146538 34.5006705,210.214119 C39.6900319,211.515863 45.3426842,210.919125 50.1165946,208.49189 C52.2719044,207.419273 54.2182296,205.961421 55.942981,204.284513 C60.067277,208.4088 64.1966087,212.528051 68.3133511,216.662409 C62.9552913,222.050671 56.0336249,225.877848 48.5983098,227.474184 C46.3699814,227.975242 44.0963311,228.216958 41.8251986,228.383138 L38.2900878,228.383138 C30.1094787,228.015528 22.0446923,225.145145 15.5787631,220.099314 C9.38476548,215.33045 4.61085511,208.723535 2.11814875,201.308379 C-1.04935085,191.984671 -0.659078642,181.495185 3.25371498,172.45348 C6.53955519,164.786536 12.3231375,158.235014 19.486521,153.967208 M102.370266,166.133602 C94.5144646,167.364845 87.5978339,173.108128 84.9011789,180.581195 C82.9598894,185.785652 83.0606048,191.710222 85.1756283,196.846697 C87.4392072,202.438907 92.0469371,207.029002 97.6517496,209.262361 C102.878879,211.387451 108.909214,211.425219 114.164041,209.368112 C120.554434,206.920733 125.668258,201.406577 127.612066,194.842465 C129.858019,187.598525 128.070321,179.294558 123.049658,173.614222 C118.061727,167.765188 109.949101,164.806679 102.370266,166.133602 M214.630179,168.805072 C210.372435,171.244897 206.940557,175.087182 205.001786,179.596704 C218.824976,179.60174 232.648165,179.60174 246.473873,179.596704 C243.414643,172.294853 236.289027,166.88393 228.410565,165.997636 C223.671905,165.405935 218.762028,166.415604 214.630179,168.805072 Z" id="Shape"></path>
        </g>
    </g>
</svg>