<?xml version="1.0" encoding="UTF-8"?>
<svg width="785px" height="125px" viewBox="0 0 785 125" version="1.1" xmlns="http://www.w3.org/2000/svg" xmlns:xlink="http://www.w3.org/1999/xlink">
    <title>collective-car_logo-h_blk</title>
    <g id="collective-car_logo-h_blk" stroke="none" stroke-width="1" fill="none" fill-rule="evenodd">
        <g id="VISAP-LOGO-2025-SMALL" transform="translate(-0, 0)" fill="#000000" fill-rule="nonzero">
            <path d="M135.264756,0 L152.746433,0 C152.776648,31.3047965 152.748951,62.609593 152.759022,93.9169074 C152.771612,95.7751025 152.620539,97.6861731 153.222313,99.4789033 C154.221914,102.820129 156.996623,105.557065 160.355482,106.508823 C162.143181,107.067792 164.03663,106.906648 165.88224,106.924273 C164.683727,103.907853 163.96613,100.697557 163.85786,97.4494924 C163.812539,95.8556746 163.847789,94.259339 163.837717,92.6630034 C163.842753,61.7761749 163.825128,30.8868285 163.845271,0 L181.331984,0 C181.347091,32.0601604 181.331984,64.1203207 181.33702,96.1779632 C181.309323,98.46168 182.009295,100.75295 183.368953,102.59352 C185.186866,105.103846 188.157971,106.750539 191.260005,106.901612 C192.652396,106.959523 194.047304,106.909166 195.44473,106.926791 C190.4568,99.7936383 187.838199,91.0440068 188.127756,82.3422151 C188.354366,73.6026551 191.592366,64.9889892 197.146821,58.241072 C202.331147,51.8834261 209.502084,47.1674377 217.413279,44.9819182 C226.308967,42.4942532 236.063255,43.2042953 244.483063,47.0113292 C252.265846,50.4834851 258.855152,56.5213602 263.039877,63.9415513 C268.747923,54.2703759 278.686016,47.2127595 289.72946,45.1153659 C301.173249,42.8089882 313.556208,45.8304437 322.595416,53.2330095 C325.196391,55.4890296 328.620715,56.6799867 332.050075,56.73538 C332.055111,46.4548778 332.055111,36.1743756 332.050075,25.8938733 C328.980773,25.8888376 325.911471,25.8963912 322.844687,25.8913555 C322.839651,20.0523928 322.839651,14.2134301 322.844687,8.37194952 C326.213617,8.36943164 329.582547,8.37698528 332.953996,8.36943164 C332.959032,5.57962109 332.951478,2.78981055 332.959032,0 L350.473441,0 C350.480995,2.79232843 350.470923,5.58465685 350.478477,8.37698528 C352.251068,8.46259318 354.086606,8.17555491 355.599855,7.19609977 C357.923863,5.79867661 359.341433,3.15490308 359.384237,0.463289838 C365.210623,0.460771959 371.039528,0.458254079 376.866892,0.463289838 C376.94145,8.72193478 372.635867,16.8194354 365.804844,21.4397444 C361.348187,24.5367363 355.886894,26.0449461 350.478477,25.8989091 C350.473441,58.6766651 350.478477,91.4569391 350.473441,124.234695 C344.334837,124.239731 338.193715,124.234695 332.055111,124.234695 C332.050075,107.573886 332.057629,90.9105592 332.050075,74.2497502 C324.823744,74.1893211 317.592378,71.7469779 311.974976,67.1644371 C309.039122,64.6918794 305.468761,62.9822392 301.696969,62.2721971 C295.88569,61.1416692 289.653924,62.4232699 284.779298,65.787157 C280.289909,68.8237197 276.981407,73.5472618 275.687214,78.8121479 C274.053107,85.1924547 275.342264,92.272732 279.224843,97.6081188 C281.941641,101.372349 285.846881,104.275464 290.25318,105.748423 C295.470239,107.515975 301.339429,107.286848 306.395342,105.091257 C309.011425,103.968283 311.385791,102.316554 313.407653,100.317357 C317.539502,104.439126 321.663798,108.570966 325.790612,112.697771 C320.372123,118.141427 313.364849,121.993782 305.841408,123.562421 C303.920261,123.980389 301.963865,124.196927 300.009986,124.38325 L161.319832,124.38325 C153.292814,123.83687 145.6183,119.639565 140.836836,113.171132 C138.840153,110.519805 137.349565,107.503385 136.387733,104.330857 C132.218115,111.587386 125.757221,117.522028 118.097815,120.921166 C113.746909,122.890147 109.040981,123.987943 104.289732,124.38325 L97.5896395,124.38325 C86.3548356,124.21707 75.1175139,124.176784 63.8801922,124.055926 C58.6706877,123.957728 53.4637011,124.060961 48.2567144,124.219588 C41.0958489,124.393322 33.766285,124.368143 26.879869,122.144855 C19.5075011,119.828406 13.1095547,114.946237 8.3784484,108.898291 C3.012835,102.01189 0.0316589091,93.3226878 0.00193133694,84.5957173 C-0.0766101551,76.7374152 2.24236213,68.8715595 6.59578567,62.3250726 C11.2866058,55.2145808 18.3115056,49.6878351 26.3158627,46.7746485 C33.1368137,44.2643226 40.6476653,43.6826924 47.7757984,45.1052943 C55.5182954,46.61854 62.7723227,50.4885208 68.3494385,56.0681419 C64.2251425,60.1999823 60.0983286,64.3267869 55.966479,68.4510736 C53.3655035,65.8752828 50.1476462,63.9163725 46.6402321,62.8487916 C42.0274664,61.4136002 36.9514098,61.5344584 32.4041091,63.1660444 C26.8144039,65.1576871 22.0984049,69.4733327 19.6056986,74.8565592 C16.2141072,82.0803556 17.0651524,91.0717035 21.7534547,97.5325824 C24.6742015,101.510832 28.808569,104.819326 33.70082,105.919639 C38.724001,107.060239 43.9183982,106.763129 49.0297052,106.685075 C55.460384,106.448394 61.8960987,106.508823 68.3292954,106.591913 C62.4878017,97.8775319 60.2922058,86.8139692 62.4021936,76.5334669 C64.1571596,67.7259243 68.9889813,59.5805839 75.8552543,53.7970146 C81.7521415,48.7813985 89.1471703,45.5736199 96.831756,44.6571118 C103.81637,43.7909612 111.020039,44.8333634 117.473379,47.6332454 C124.702227,50.7403088 130.969244,56.0278559 135.25972,62.6221824 C135.262238,41.7489609 135.252167,20.8732215 135.264756,0 M216.360803,64.3695908 C212.299454,66.8572558 209.076561,70.6642897 207.273755,75.0705789 C221.157374,75.0252571 235.040993,74.922024 248.924612,74.8615949 C247.27288,70.9488101 244.503206,67.5169403 241.015935,65.0871865 C237.319679,62.4862169 232.817701,61.0485077 228.295579,61.0334004 C224.108336,60.9931143 219.921093,62.1639283 216.360803,64.3695908 M98.2694685,62.128678 C94.0948148,62.7581479 90.1090025,64.5936821 86.9263956,67.3683854 C83.1621572,70.6240036 80.5183777,75.1536689 79.5590634,80.0383553 C78.5065874,85.2453302 79.4079903,90.8148798 82.0240731,95.4377066 C84.6703704,100.163767 89.0867411,103.85246 94.1955302,105.64519 C101.535166,108.28141 110.206762,106.73795 116.1389,101.659387 C119.857816,98.5321806 122.536846,94.1838026 123.622055,89.4451533 C124.825604,84.2558035 124.090381,78.6484858 121.605229,73.9375331 C119.306399,69.5413154 115.499357,65.9608907 110.987307,63.9088189 C107.041781,62.0909098 102.562463,61.4639578 98.2694685,62.128678 M207.460079,92.6000564 C210.068608,98.7613077 215.368756,103.786995 221.78181,105.796263 C224.125961,106.596949 226.608596,106.725361 229.05598,106.929309 C240.822058,106.921755 252.590653,106.929309 264.356731,106.924273 C261.368001,102.530573 259.278156,97.5351003 258.240788,92.3230896 C241.313045,92.4061797 224.387821,92.4867518 207.460079,92.6000564 Z" id="Shape"></path>
            <path d="M438.110954,49.6651742 C446.231134,44.5186284 456.254835,42.542093 465.734673,44.1006604 C473.990818,45.4024041 481.771084,49.4259757 487.64531,55.3656535 C493.710895,61.4010108 497.742029,69.4380824 498.915364,77.9157828 C499.187296,80.4386981 499.632961,83.0572929 498.930471,85.5474757 C497.880513,89.3922778 494.164115,92.2903572 490.178302,92.3608578 C472.955967,92.3734472 455.733632,92.3558221 438.511298,92.3684115 C440.397194,96.8452013 443.778713,100.664825 447.97351,103.109686 C451.349994,105.083703 455.255234,106.131141 459.16551,106.148766 C470.271902,106.153802 481.378293,106.146248 492.484685,106.151284 C492.484685,111.982693 492.484685,117.814102 492.482167,123.645511 C481.297721,123.650547 470.110757,123.645511 458.926311,123.648029 C450.972312,123.612779 443.046009,121.125114 436.51965,116.572788 C432.503624,113.788013 429.013835,110.262981 426.234089,106.246964 C425.050683,109.273455 423.879867,112.302464 422.698978,115.328955 C421.38716,118.685289 418.642665,121.447402 415.293878,122.781879 C411.449067,124.358071 406.881624,124.00305 403.333923,121.835156 C400.949486,120.402482 399.038411,118.204374 397.953203,115.64369 C391.081894,99.3404199 384.215621,83.034632 377.34683,66.728844 C376.974183,65.8929079 376.782824,64.8530237 375.866313,64.427502 C375.81092,84.2381784 375.861278,104.048855 375.841135,123.859913 C370.009712,123.857013 364.175772,123.864567 358.34435,123.854495 C358.34435,109.17274 358.34435,94.4909839 358.34435,79.8092282 C358.306582,73.8519252 358.429958,67.8921043 358.256224,61.939837 C358.263778,56.7227906 358.256224,51.5057442 358.26126,46.2886977 C362.443467,46.2861799 366.628193,46.283662 370.812918,46.2886977 C375.377844,46.3440911 380.081253,46.910614 384.18037,49.0608831 C387.916912,50.9618822 390.938374,54.1746965 392.673197,57.9867661 C398.479441,71.787264 404.288202,85.5877618 410.109552,99.380706 C413.861201,89.744781 417.607815,80.106338 421.356946,70.470413 C422.502583,67.3885284 423.761526,64.324269 425.559296,61.5546015 C428.009198,57.6669954 431.201877,54.247715 434.905686,51.5284051 C435.917876,50.8158452 436.897333,50.0025701 438.110954,49.6651742 M446.49803,65.1375441 C443.013276,67.5572263 440.236049,70.9689531 438.554102,74.8615949 C452.379809,74.8666307 466.208035,74.8691486 480.033743,74.8615949 C478.47769,71.2408841 475.97743,68.0331056 472.830073,65.661263 C469.010441,62.75563 464.244085,61.1139726 459.442477,61.0963474 C454.844819,61.0434719 450.25975,62.5013242 446.49803,65.1375441 Z" id="Shape"></path>
            <path d="M532.045698,49.9673198 C539.292171,45.613906 547.943625,43.6952818 556.353361,44.5035211 C564.183984,45.2261526 571.770373,48.3357338 577.848548,53.3261711 C580.280825,55.3832787 583.423145,56.526396 586.595681,56.6699151 C588.166841,56.7454515 589.9067,56.5012172 591.062409,55.3278853 C598.311401,48.3860914 608.257047,44.3448947 618.300891,44.3323053 C626.383303,44.2315901 634.450607,46.7167373 641.125521,51.2690635 C641.123003,49.1137586 641.120485,46.9559358 641.125521,44.8006309 C646.956943,44.7955952 652.788365,44.7955952 658.619787,44.8006309 C658.632377,62.5164315 658.609716,80.2347499 658.632377,97.9505504 C658.63993,102.054694 661.767144,105.796263 665.750438,106.685075 C665.765546,95.5484933 665.752956,84.4119121 665.757992,73.2728129 C665.768064,71.3441172 665.690009,69.4053499 665.911583,67.4816899 C666.254015,64.2588041 667.218365,61.1013832 668.729097,58.2335183 C672.319601,51.3320105 679.153141,46.2181971 686.81003,44.7930773 C689.70308,44.1787147 692.669149,44.360002 695.607521,44.3348232 C709.458408,44.3348232 723.309294,44.3348232 737.160181,44.3373411 C739.688138,44.2618047 742.22113,44.4355384 744.723908,44.840917 C753.105948,46.1552501 760.991964,50.2845726 766.906477,56.3627338 C772.805882,62.3502514 776.736301,70.2463217 777.907117,78.5754673 C778.184085,81.0782395 778.619679,83.6691376 777.972582,86.149249 C776.947803,90.1602311 773.035009,93.1489541 768.900642,93.1162217 C751.771469,93.1288111 734.644814,93.1137038 717.51564,93.1237753 C720.29035,99.7256555 726.360971,104.84954 733.378317,106.350197 C736.349422,107.067792 739.421242,106.853773 742.450258,106.883987 C756.633505,106.883987 770.816753,106.883987 785,106.883987 L785,124.38325 L736.638979,124.38325 C728.277082,124.030747 720.038561,121.036988 713.49206,115.804834 C707.353456,110.955398 702.639975,104.298125 700.225323,96.8477192 C697.183717,87.5668152 697.664633,77.1704905 701.642892,68.2420896 C702.622349,65.9986589 703.841006,63.8660149 705.208218,61.836604 C701.16953,61.8315682 697.130842,61.8391219 693.092154,61.8315682 C691.624227,61.8038715 690.110978,61.8214967 688.733695,62.3829838 C685.621588,63.5311369 683.342902,66.6507897 683.282473,69.9794265 C683.249741,88.113195 683.317723,106.249481 683.249741,124.38325 L666.621627,124.38325 C662.341222,124.164194 658.106139,122.968202 654.404848,120.79779 C651.176919,118.934559 648.379548,116.366321 646.171363,113.370045 C640.778053,118.496448 633.944512,122.104569 626.647681,123.582564 C624.633373,124.013122 622.581296,124.209516 620.534256,124.38325 L616.860661,124.38325 C608.86134,124.00305 600.987913,121.225829 594.59752,116.386465 C588.030875,111.471564 583.022802,104.502073 580.504916,96.6916107 C578.062568,89.1958832 577.939191,80.9800422 580.079394,73.3987069 C575.982795,72.4670915 572.064965,70.7524155 568.638123,68.3201438 C567.351484,67.4288145 566.203328,66.351162 564.886474,65.5076724 C560.482693,62.6020394 555.03399,61.3430996 549.804342,62.002784 C542.447081,62.8462737 535.68656,67.6101018 532.438488,74.2648575 C530.240374,78.6761824 529.558027,83.8101389 530.489645,88.6469855 C531.237456,92.6252352 533.083066,96.3970188 535.794829,99.4058848 C538.765933,102.72445 542.731602,105.14665 547.059847,106.214231 C552.249209,107.515975 557.901861,106.919237 562.675771,104.492002 C564.831081,103.419385 566.777406,101.961533 568.502158,100.284625 C572.626454,104.408911 576.755785,108.528162 580.872528,112.662521 C575.514468,118.050783 568.592802,121.87796 561.157486,123.474295 C558.929158,123.975354 556.655508,124.21707 554.384375,124.38325 L550.849264,124.38325 C542.668655,124.01564 534.603869,121.145257 528.13794,116.099426 C521.943942,111.330562 517.170032,104.723646 514.677325,97.3084911 C511.509826,87.9847832 511.900098,77.4952969 515.812892,68.4535915 C519.098732,60.7866482 524.882314,54.2351256 532.045698,49.9673198 M614.929443,62.1337138 C607.073641,63.3649569 600.157011,69.1082401 597.460356,76.5813067 C595.519066,81.7857637 595.619781,87.7103343 597.734805,92.8468086 C599.998384,98.4390191 604.606114,103.029113 610.210926,105.262473 C615.438056,107.387563 621.468391,107.425331 626.723217,105.368224 C633.11361,102.920845 638.227435,97.4066885 640.171242,90.8425765 C642.417196,83.598637 640.629498,75.2946702 635.608834,69.6143339 C630.620904,63.7652997 622.508278,60.8067912 614.929443,62.1337138 M727.189355,64.805184 C722.931612,67.2450093 719.499734,71.0872935 717.560962,75.5968157 C731.384152,75.6018515 745.207342,75.6018515 759.03305,75.5968157 C755.973819,68.294965 748.848204,62.8840419 740.969741,61.9977483 C736.231081,61.4060466 731.321205,62.4157163 727.189355,64.805184 Z" id="Shape"></path>
        </g>
    </g>
</svg>