<?xml version="1.0" encoding="UTF-8"?>
<svg id="Layer_1" data-name="Layer 1" xmlns="http://www.w3.org/2000/svg" viewBox="0 0 85.04 26.65">
  <defs>
    <style>
      .cls-1 {
        fill: #231f20;
      }
    </style>
  </defs>
  <g>
    <path class="cls-1" d="M5.96,8.66l.13.25c-.27.24-.58.49-.93.74-.35.25-.66.44-.91.55-.14.06-.25.1-.33.1-.08,0-.16-.05-.23-.14-.07-.09-.1-.25-.1-.47,0-.15.01-.31.04-.48.03-.17.17-.81.42-1.91h-.03c-.34.58-.76,1.12-1.24,1.62-.49.51-.96.88-1.43,1.14-.3.16-.53.24-.72.24s-.33-.13-.45-.4c-.12-.27-.18-.59-.18-.98,0-.53.08-1.13.24-1.78.16-.66.36-1.23.61-1.71.19-.37.41-.67.66-.89.39-.35.83-.64,1.32-.87.24-.1.51-.16.79-.16.23,0,.6.05,1.12.16l.3-1.71c.06-.37.1-.6.1-.69,0-.14-.03-.24-.09-.29-.06-.05-.17-.08-.34-.08h-.67s.03-.28.03-.28c.56-.07.97-.15,1.22-.22.25-.07.57-.21.95-.4l.17.14c-.07.27-.2.86-.38,1.75-.11.57-.41,2.02-.89,4.33-.24,1.14-.4,1.94-.46,2.4-.02.15-.03.28-.03.4s.02.21.05.26c.04.05.08.07.14.07.08,0,.2-.05.34-.14.3-.18.56-.37.78-.55ZM4.6,4.47c-.42-.22-.86-.33-1.32-.33-.33,0-.61.05-.82.14-.15.06-.28.17-.4.32-.12.15-.26.48-.44.97-.18.5-.31.94-.4,1.33-.15.64-.23,1.23-.23,1.77,0,.2.01.35.04.44.03.09.06.15.11.18.04.03.1.05.16.05.11,0,.24-.03.37-.1.35-.17.69-.41,1.01-.71.32-.3.61-.65.87-1.04.26-.39.46-.81.62-1.26.11-.32.25-.91.43-1.77Z"/>
    <path class="cls-1" d="M7.25,5.08l-.12-.27c.81-.56,1.34-.91,1.62-1.04s.49-.2.64-.2c.09,0,.15.03.2.09.06.09.1.21.1.38,0,.08-.02.19-.05.33-.06.27-.18.77-.38,1.49-.5,1.84-.74,2.93-.74,3.26,0,.1.02.16.05.21.03.04.08.06.14.06.09,0,.21-.03.34-.1.14-.07.39-.24.76-.51l.14.27c-.74.56-1.29.94-1.66,1.13-.18.09-.33.14-.44.14s-.21-.05-.3-.16-.13-.25-.13-.44c0-.15.02-.31.05-.48.03-.18.11-.5.24-.96.53-1.91.8-3.09.8-3.55,0-.1-.01-.16-.04-.19-.02-.03-.06-.05-.11-.05-.05,0-.12.02-.2.05-.04.02-.34.2-.9.54Z"/>
    <path class="cls-1" d="M11.15,9.5c0-.26.08-.48.25-.66.16-.17.36-.26.59-.26.19,0,.34.06.45.17.11.12.17.28.17.48,0,.3-.08.54-.24.72-.16.18-.35.27-.58.27-.18,0-.33-.06-.45-.19-.12-.13-.18-.31-.18-.55ZM11.96,4.68c0-.27.08-.49.25-.66.16-.17.36-.26.59-.26.19,0,.34.06.45.17.11.12.17.28.17.48,0,.3-.08.54-.24.72-.16.18-.35.27-.58.27-.18,0-.33-.06-.45-.19-.12-.13-.18-.31-.18-.54Z"/>
  </g>
  <path class="cls-1" d="M15.55,1.04h1v3.51h-1V1.04ZM22.86,10.29h-1.23l-2.05-5.48h-.03l-1.93,5.48h-1.21l2.64-6.93h1.13l2.67,6.93Z"/>
  <path class="cls-1" d="M29.25,5.89v4.41h-1.12v-4.3c0-1.2-.42-1.72-1.46-1.72-1.21,0-1.94.98-1.94,2.15v3.87h-1.12V3.47h1.06v1.1c.44-.77,1.27-1.25,2.31-1.25s2.28.49,2.28,2.57"/>
  <path class="cls-1" d="M36.47,3.47v6.64c0,1.97-1.14,2.96-3.01,2.96-1.4,0-2.16-.59-2.73-1.39l.81-.62c.41.54.88,1.08,2.03,1.08,1.27,0,1.85-.82,1.85-1.89v-1.12c-.4.83-1.29,1.24-2.15,1.24-2.03,0-3.05-1.6-3.05-3.46,0-1.61.79-3.6,3.15-3.6.84,0,1.64.38,2.05,1.13v-.98h1.06ZM35.36,6.74c0-1.2-.53-2.44-1.94-2.44s-2.02,1.18-2.02,2.48c0,1.23.45,2.6,1.93,2.6s2.03-1.36,2.03-2.64"/>
  <path class="cls-1" d="M38.61,7.13v.03c0,1.06.58,2.31,2.2,2.31.84,0,1.37-.4,1.68-1.07l1.03.41c-.45,1.02-1.39,1.65-2.75,1.65-2.14,0-3.31-1.5-3.31-3.59s1.35-3.55,3.21-3.55c2.01,0,3.01,1.7,3.01,3.1,0,.28,0,.44-.03.71h-5.04ZM38.64,6.14h3.93c-.05-1.02-.86-1.83-1.97-1.83s-1.85.83-1.97,1.83"/>
  <polygon class="cls-1" points="53.54 3.47 51.36 10.29 50.17 10.29 48.77 4.86 47.39 10.29 46.17 10.29 43.98 3.47 45.22 3.47 46.78 9.05 48.17 3.47 49.39 3.47 50.83 9.05 52.38 3.47 53.54 3.47"/>
  <polygon class="cls-1" points="59.38 10.29 58.15 10.29 56.1 4.82 56.08 4.82 54.15 10.29 52.93 10.29 55.57 3.37 56.71 3.37 59.38 10.29"/>
  <path class="cls-1" d="M65.68,5.89v4.41h-1.12v-4.3c0-1.2-.42-1.72-1.46-1.72-1.21,0-1.94.98-1.94,2.15v3.87h-1.12V3.47h1.06v1.1c.44-.77,1.27-1.25,2.31-1.25s2.28.49,2.28,2.57"/>
  <path class="cls-1" d="M73.2,1.45v8.84h-1.12v-.92c-.4.75-1.27,1.08-2.2,1.08-2.1,0-3.14-1.66-3.14-3.59s1.03-3.55,3.12-3.55c.7,0,1.7.26,2.23,1.07V1.45h1.12ZM72.12,6.89c0-1.35-.61-2.59-2.15-2.59s-2.05,1.31-2.05,2.64.66,2.52,2.11,2.52,2.09-1.29,2.09-2.57"/>
  <path class="cls-1" d="M83.89,6.64v-.03c0-1.06-.58-2.31-2.2-2.31-.84,0-1.37.4-1.68,1.07l-1.03-.41c.45-1.02,1.39-1.65,2.74-1.65,2.14,0,3.31,1.5,3.31,3.59s-1.35,3.55-3.21,3.55c-2.01,0-3.01-1.7-3.01-3.1,0-.28,0-.44.03-.71h5.04ZM83.86,7.63h-3.93c.05,1.02.86,1.83,1.97,1.83s1.85-.83,1.97-1.83"/>
  <path class="cls-1" d="M78.24,9.32c-.22.09-.61.16-.9.16-.62,0-.92-.41-.92-1.16v-3.85h1.57v-.99h-1.57V1.45h-1.12v2.02h-1.09v.99h1.09v3.8c0,1.11.33,2.16,1.77,2.16.71,0,1.04-.11,1.39-.22l-.21-.88Z"/>
  <path class="cls-1" d="M20.83,25.41c-.3,0-.55-.08-.75-.23-.2-.16-.29-.35-.29-.57,0-.14.03-.32.08-.54l.32-1.41c.03-.13.05-.24.05-.31,0-.08-.03-.12-.11-.13l-.16-.02s-.03-.02-.03-.04c0-.03,0-.05.02-.07h.53s.54,0,.54,0v.04s0,.06-.03.06l-.17.03s-.08.03-.12.07c-.03.04-.08.17-.13.38l-.37,1.61c-.03.1-.04.2-.04.3,0,.13.03.24.09.34.06.09.15.17.26.22.11.05.24.08.39.08.24,0,.44-.07.6-.21.16-.14.29-.38.36-.71l.27-1.17c.04-.18.08-.34.1-.47.02-.13.02-.23,0-.3-.01-.07-.06-.11-.13-.12l-.19-.02s-.03-.02-.03-.04c0-.03,0-.05.02-.07h.5s.47,0,.47,0v.04s0,.06-.03.06l-.15.03s-.03,0-.05.02c-.02.01-.05.04-.08.1-.03.06-.1.29-.2.72l-.3,1.29c-.17.71-.58,1.07-1.25,1.07Z"/>
  <path class="cls-1" d="M24.77,24.78l.04.03s.02.05-.02.09c-.13.17-.26.29-.38.38-.12.09-.22.13-.3.13-.06,0-.11-.02-.14-.06s-.04-.09-.04-.16c0-.13.06-.34.18-.62l.26-.62c.07-.18.1-.29.1-.34,0-.07-.04-.1-.11-.1-.09,0-.21.07-.35.21-.24.24-.42.46-.54.64-.11.18-.2.36-.26.52l-.08.23c-.03.1-.07.16-.09.19-.03.02-.08.04-.17.04h-.15s.49-1.4.49-1.4c.06-.16.09-.28.09-.36,0-.06-.02-.09-.07-.09-.03,0-.06.01-.09.04-.03.02-.07.05-.1.09-.03.03-.05.06-.07.09-.02.02-.03.04-.04.06-.01.01-.02.03-.03.04,0,.01-.02.02-.02.03l-.04-.02s-.01,0-.02-.02c0,0,0-.03.03-.07.07-.1.14-.19.22-.28.08-.09.16-.15.23-.19.07-.04.13-.06.18-.06.06,0,.11.02.14.06.03.04.05.09.05.15,0,.04,0,.09-.03.16-.02.07-.06.2-.13.39l-.12.34h0c.14-.21.32-.42.55-.65.17-.17.32-.29.44-.36.12-.06.22-.09.31-.09.05,0,.1.02.13.05.04.04.06.09.06.16,0,.03,0,.07-.02.13-.01.06-.07.2-.16.42l-.3.71c-.07.17-.1.29-.1.36,0,.06.03.09.09.09.05,0,.12-.04.19-.1.07-.07.14-.14.19-.21Z"/>
  <path class="cls-1" d="M26.66,22.1c0,.06-.02.12-.06.16-.04.05-.09.07-.16.07-.06,0-.1-.02-.14-.05-.03-.04-.05-.08-.05-.14,0-.06.02-.12.06-.16.04-.04.09-.07.16-.07.06,0,.1.02.14.05.03.04.05.08.05.14ZM26.19,24.78l.04.03s.02.05-.02.09c-.14.17-.27.3-.39.38s-.21.13-.29.13c-.06,0-.11-.02-.14-.06-.03-.04-.04-.09-.04-.16,0-.13.06-.34.18-.62l.26-.63c.06-.16.09-.26.09-.31s-.02-.08-.07-.08c-.01,0-.03,0-.04,0-.02,0-.04.02-.06.04-.02.02-.05.04-.07.07s-.05.06-.08.09c-.03.04-.05.06-.05.06l-.04-.02s-.01,0-.02-.02c0,0,0-.03.03-.07.06-.09.14-.19.23-.28.09-.09.17-.16.24-.2.07-.04.13-.06.18-.06.04,0,.08.02.12.05.03.03.05.09.05.17,0,.1-.05.28-.16.55l-.3.71c-.07.17-.1.29-.1.36,0,.06.03.09.09.09.05,0,.12-.04.19-.1.07-.07.14-.14.19-.21Z"/>
  <path class="cls-1" d="M28.63,23.46c0,.25-.07.51-.2.8s-.3.53-.5.73c-.12.12-.25.22-.38.3-.14.08-.26.12-.37.12-.1,0-.18-.03-.22-.1-.05-.07-.07-.16-.07-.26,0-.11.04-.28.12-.5l.22-.61c.07-.2.11-.32.11-.36,0-.06-.02-.09-.07-.09-.03,0-.06.01-.09.04-.03.02-.07.05-.1.09-.03.03-.05.06-.07.09-.02.02-.03.04-.04.06-.01.01-.02.03-.03.04,0,.01-.02.02-.02.03l-.04-.02s-.01,0-.02-.02c0,0,0-.03.03-.07.07-.1.14-.19.22-.28.08-.09.16-.15.23-.19.07-.04.13-.06.18-.06.06,0,.11.02.15.06s.05.09.05.15c0,.01,0,.04,0,.08,0,.04-.02.09-.04.16-.02.07-.07.2-.14.4l-.22.62c-.05.16-.08.27-.08.35,0,.05.01.1.04.13.03.03.06.05.11.05.12,0,.27-.09.43-.26.14-.15.26-.33.37-.55.11-.22.16-.42.16-.59,0-.06-.01-.14-.04-.23-.02-.09-.04-.15-.04-.18,0-.05.02-.1.06-.14.04-.04.08-.05.14-.05.04,0,.08.02.11.06.03.04.05.12.05.22Z"/>
  <path class="cls-1" d="M30.28,23.52c0-.06-.01-.12-.04-.16-.03-.05-.07-.07-.13-.07-.06,0-.11.02-.17.05-.06.03-.11.08-.17.15-.06.07-.12.17-.2.3-.07.14-.14.3-.19.48l.02.03c.1,0,.2-.04.33-.09.12-.05.23-.11.32-.2.09-.08.15-.17.19-.25.04-.09.05-.17.05-.24ZM30.32,24.69l.05.03s.01.02.02.03c0,.01,0,.04-.04.08-.14.17-.29.3-.45.42-.16.11-.33.17-.49.17s-.28-.05-.36-.16c-.08-.11-.12-.24-.12-.41,0-.11.02-.25.07-.42.04-.17.12-.34.23-.52.11-.19.22-.33.35-.45.13-.11.24-.19.35-.23.11-.04.2-.06.28-.06.12,0,.22.03.29.09.07.06.11.15.11.26,0,.14-.05.26-.15.38-.1.12-.25.23-.44.32s-.41.15-.65.18l-.03.03c-.04.14-.05.26-.05.36,0,.11.02.19.07.26.05.07.12.1.23.1.24,0,.48-.16.74-.47Z"/>
  <path class="cls-1" d="M32.54,23.32c0,.07-.02.14-.05.21s-.07.1-.12.1h-.16c-.05-.01-.1,0-.15.05-.05.04-.11.11-.17.22-.09.15-.17.3-.24.45-.07.14-.14.32-.22.53l-.08.23c-.04.1-.07.16-.09.19-.03.02-.08.04-.17.04h-.15s.27-.78.27-.78c.06-.18.12-.35.16-.54.05-.18.07-.33.07-.42,0-.07-.02-.1-.07-.1-.03,0-.06.01-.09.04-.03.02-.07.05-.1.09-.03.03-.05.06-.07.09-.02.02-.03.04-.04.06-.01.01-.02.03-.03.04,0,.01-.02.02-.02.03l-.04-.02s-.01,0-.02-.02c0,0,0-.03.03-.07.07-.1.14-.19.22-.28.08-.09.16-.15.23-.19.07-.04.13-.06.18-.06.1,0,.16.07.16.21,0,.16-.08.46-.23.9h.01l.35-.63c.11-.2.2-.33.28-.39.07-.06.14-.09.2-.09.05,0,.08.01.11.05.02.03.04.07.04.11Z"/>
  <path class="cls-1" d="M33.63,24.69c0,.09-.03.19-.08.3-.06.1-.15.2-.28.29-.13.09-.27.13-.41.13-.11,0-.2-.02-.27-.07s-.11-.11-.11-.18c0-.06.01-.11.04-.16.03-.04.05-.07.09-.07.03,0,.07.03.13.08.06.06.12.1.18.12.06.02.12.04.19.04.08,0,.15-.03.2-.08.05-.06.07-.12.07-.19,0,0,0-.03,0-.05,0-.02-.01-.06-.03-.11-.02-.05-.08-.14-.18-.25-.1-.11-.17-.2-.21-.25-.04-.05-.07-.11-.09-.17-.02-.06-.03-.13-.03-.2,0-.05.02-.12.05-.2.03-.08.09-.16.16-.25.08-.08.17-.15.26-.19.1-.05.2-.07.3-.07.04,0,.09,0,.14.02.05.02.09.04.11.07.02.03.04.06.04.09,0,.03-.01.08-.04.13-.03.05-.06.08-.1.08-.03,0-.08-.02-.16-.07-.08-.05-.16-.07-.24-.07-.04,0-.08,0-.13.03-.04.02-.08.05-.1.09-.03.04-.04.09-.04.13,0,0,0,.03,0,.05,0,.02.01.06.03.11.02.05.08.14.19.25.1.11.17.2.21.25.04.05.07.11.09.17.02.06.03.13.03.2Z"/>
  <path class="cls-1" d="M35.56,22.1c0,.06-.02.12-.06.16-.04.05-.09.07-.16.07-.06,0-.1-.02-.14-.05-.03-.04-.05-.08-.05-.14,0-.06.02-.12.06-.16.04-.04.09-.07.16-.07.06,0,.1.02.14.05.03.04.05.08.05.14ZM35.09,24.78l.04.03s.02.05-.02.09c-.14.17-.27.3-.39.38s-.21.13-.29.13c-.06,0-.11-.02-.14-.06-.03-.04-.04-.09-.04-.16,0-.13.06-.34.18-.62l.26-.63c.06-.16.09-.26.09-.31s-.02-.08-.07-.08c-.01,0-.03,0-.04,0-.02,0-.04.02-.06.04-.02.02-.05.04-.07.07-.03.03-.05.06-.08.09-.03.04-.05.06-.05.06l-.04-.02s-.01,0-.02-.02c0,0,0-.03.03-.07.06-.09.14-.19.23-.28.09-.09.17-.16.24-.2.07-.04.13-.06.18-.06.04,0,.08.02.12.05.03.03.05.09.05.17,0,.1-.05.28-.16.55l-.3.71c-.07.17-.1.29-.1.36,0,.06.03.09.09.09.05,0,.12-.04.19-.1.07-.07.14-.14.19-.21Z"/>
  <path class="cls-1" d="M39.33,23.45s0,.1-.02.18-.05.2-.1.35-.13.34-.24.56c-.1.22-.23.45-.38.7-.3.5-.56.85-.81,1.08-.24.22-.47.33-.68.33-.13,0-.2-.05-.2-.15,0-.05.01-.1.04-.14.02-.04.06-.06.11-.06.02,0,.07,0,.13.02.06.01.11.02.14.02.09,0,.17-.02.24-.05.07-.04.16-.11.26-.21.09-.09.15-.19.2-.3.05-.11.07-.28.07-.51,0-.19,0-.41-.03-.65-.02-.24-.05-.45-.09-.63-.04-.18-.09-.3-.15-.38-.06-.07-.12-.11-.18-.11-.06,0-.11.03-.15.09-.04.06-.08.16-.1.31h-.05s-.01-.01-.02-.02c0,0,0-.03,0-.08.02-.14.04-.25.07-.34.03-.09.08-.16.14-.21.06-.05.14-.08.23-.08.15,0,.28.09.38.28.1.19.17.45.2.8.04.35.05.7.03,1.05h0c.2-.32.36-.62.47-.9s.17-.49.17-.65c0-.05-.01-.11-.03-.2-.02-.09-.03-.15-.03-.19,0-.05.02-.1.06-.14.04-.04.08-.05.14-.05s.1.03.12.08c.03.05.04.12.04.2Z"/>
  <path class="cls-1" d="M42.27,23.71c0-.09-.01-.16-.04-.24-.03-.07-.06-.12-.11-.15-.05-.03-.1-.05-.16-.05-.09,0-.18.04-.28.12-.1.08-.19.21-.27.38-.09.17-.16.36-.22.57-.06.21-.09.39-.09.53,0,.09.01.16.04.24.03.07.06.12.11.15.05.03.1.05.16.05.09,0,.18-.04.28-.12.1-.08.19-.21.27-.38.09-.17.16-.36.22-.57.06-.21.09-.39.09-.53ZM42.6,23.88c0,.23-.06.48-.18.74s-.27.45-.45.59c-.17.14-.35.2-.53.2-.21,0-.38-.06-.49-.19-.12-.13-.17-.3-.17-.51,0-.24.06-.48.18-.74.12-.26.27-.45.45-.59.17-.14.35-.2.53-.2.21,0,.38.06.49.19.12.13.17.3.17.51Z"/>
  <path class="cls-1" d="M45.26,21.92s-.02.09-.06.14c-.04.05-.08.08-.12.08-.03,0-.08-.02-.16-.06-.08-.04-.14-.07-.19-.08-.05-.01-.09-.02-.13-.02-.1,0-.19.04-.28.12s-.17.22-.24.42c-.08.21-.15.45-.2.71,0,.02.01.03.02.03h.47s.02.02.02.04c0,.02,0,.04-.01.07,0,.03-.02.04-.03.05h-.5l-.03.03c-.13.52-.26,1.05-.4,1.57-.12.44-.24.78-.37,1s-.27.39-.43.48c-.16.1-.32.14-.5.14-.1,0-.18-.01-.23-.05-.05-.03-.08-.07-.08-.12,0-.04.01-.08.04-.13.03-.05.07-.08.11-.08.03,0,.09.02.17.06.08.04.14.06.18.07.04,0,.07,0,.09,0,.07,0,.14-.02.21-.07.07-.05.14-.15.21-.29.07-.15.15-.4.23-.77.21-.93.36-1.54.43-1.83l-.02-.03h-.28s-.02-.02-.02-.04c0-.02,0-.04.01-.07,0-.03.02-.04.03-.05h.31s.03-.02.03-.03c.08-.32.17-.57.27-.76.1-.19.25-.36.45-.52.2-.16.4-.24.61-.24.06,0,.12,0,.18.03.07.02.11.05.15.08.03.03.05.07.05.1Z"/>
  <path class="cls-1" d="M47.54,23.95l.03-.03-.18-1.3h0l-.78,1.3s0,.02.02.03h.91ZM48.44,25.34h-.51s-.54,0-.54,0v-.04s0-.06.03-.06l.17-.03s.07-.02.1-.04c.03-.02.04-.07.03-.13,0-.06-.02-.18-.04-.35l-.08-.51s-.02-.03-.03-.03h-1.07l-.04.03-.31.51c-.11.18-.16.31-.16.39,0,.08.05.12.14.14l.15.02s.03.02.03.04c0,.03,0,.06-.02.07h-.49s-.45,0-.45,0v-.04s0-.02,0-.03c0-.01.01-.02.04-.03l.12-.03s.07-.03.11-.06c.04-.03.1-.11.17-.23s.12-.2.14-.23l1.59-2.63s.06,0,.1,0,.07,0,.09,0l.38,2.63c.02.15.04.27.08.36.03.09.08.15.15.16l.12.02s.03.02.03.04c0,.03,0,.06-.02.07Z"/>
  <path class="cls-1" d="M50.56,23.77c0-.29-.14-.43-.43-.43-.07,0-.17.01-.31.04l-.04.03-.41,1.51s-.02.08-.02.12c0,.07.02.13.07.17.04.04.1.06.18.06.09,0,.19-.04.3-.11.1-.07.21-.19.3-.34.1-.15.18-.33.25-.53.07-.2.1-.37.1-.52ZM50.91,23.73c0,.11-.02.25-.07.42-.05.17-.13.34-.25.53-.11.19-.24.33-.37.45-.13.11-.25.19-.36.23-.11.04-.2.06-.28.06-.11,0-.21-.02-.31-.05-.01,0-.02.01-.03.02l-.2.73c-.03.1-.05.18-.05.24,0,.06.03.09.1.1l.24.03s.01,0,.02,0c0,0,0,.02,0,.03l-.03.07h-.51s-.46,0-.46,0v-.06s.03-.04.04-.04l.13-.02s.06-.03.09-.05c.03-.03.06-.13.1-.29l.69-2.57-.02-.03c-.17.06-.31.12-.45.18l-.03-.05s.01-.06.06-.08c.19-.08.34-.15.46-.19,0,0,.02-.02.04-.04l.12-.47s.06-.05.14-.07c.07-.02.12-.03.16-.03.03,0,.04,0,.05.01l-.12.44.02.03c.18-.05.34-.07.45-.07.18,0,.33.05.44.14.11.1.16.24.16.42Z"/>
  <path class="cls-1" d="M53.03,23.77c0-.29-.14-.43-.43-.43-.07,0-.17.01-.31.04l-.04.03-.41,1.51s-.02.08-.02.12c0,.07.02.13.07.17.04.04.1.06.18.06.09,0,.19-.04.3-.11.1-.07.21-.19.3-.34.1-.15.18-.33.25-.53.07-.2.1-.37.1-.52ZM53.38,23.73c0,.11-.02.25-.07.42-.05.17-.13.34-.25.53-.11.19-.24.33-.37.45-.13.11-.25.19-.36.23-.11.04-.2.06-.28.06-.11,0-.21-.02-.31-.05-.01,0-.02.01-.03.02l-.2.73c-.03.1-.05.18-.05.24,0,.06.03.09.1.1l.24.03s.01,0,.02,0c0,0,0,.02,0,.03l-.03.07h-.51s-.46,0-.46,0v-.06s.03-.04.04-.04l.13-.02s.06-.03.09-.05c.03-.03.06-.13.1-.29l.69-2.57-.02-.03c-.17.06-.31.12-.45.18l-.03-.05s.01-.06.06-.08c.19-.08.34-.15.46-.19,0,0,.02-.02.04-.04l.12-.47s.06-.05.14-.07c.07-.02.12-.03.16-.03.03,0,.04,0,.05.01l-.12.44.02.03c.18-.05.34-.07.45-.07.18,0,.33.05.44.14s.16.24.16.42Z"/>
  <path class="cls-1" d="M54.63,24.78l.04.03s.02.05-.02.09c-.16.18-.29.32-.39.39-.1.08-.2.12-.28.12-.06,0-.11-.02-.14-.06-.03-.04-.05-.09-.05-.15,0-.11.04-.29.12-.54l.73-2.33c.03-.11.02-.17-.04-.19l-.17-.05s-.03-.02-.02-.04v-.04c.12-.02.24-.06.38-.11.06-.03.13-.05.2-.08.07-.03.11-.05.14-.05.02,0,.03,0,.03.01-.06.14-.12.32-.19.55l-.73,2.33c-.05.17-.08.29-.08.36,0,.06.02.09.07.09.04,0,.1-.03.17-.08.07-.06.15-.13.23-.23Z"/>
  <path class="cls-1" d="M56.59,22.1c0,.06-.02.12-.06.16-.04.05-.09.07-.16.07-.06,0-.1-.02-.14-.05-.03-.04-.05-.08-.05-.14,0-.06.02-.12.06-.16.04-.04.09-.07.16-.07.06,0,.1.02.14.05.03.04.05.08.05.14ZM56.13,24.78l.04.03s.02.05-.02.09c-.14.17-.27.3-.39.38s-.21.13-.29.13c-.06,0-.11-.02-.14-.06s-.04-.09-.04-.16c0-.13.06-.34.18-.62l.26-.63c.06-.16.09-.26.09-.31s-.02-.08-.07-.08c-.01,0-.03,0-.04,0-.02,0-.04.02-.06.04-.02.02-.05.04-.07.07-.03.03-.05.06-.08.09-.03.04-.05.06-.05.06l-.04-.02s-.01,0-.02-.02c0,0,0-.03.03-.07.06-.09.14-.19.23-.28.09-.09.17-.16.24-.2.07-.04.13-.06.18-.06.04,0,.08.02.12.05.03.03.05.09.05.17,0,.1-.05.28-.16.55l-.3.71c-.07.17-.1.29-.1.36,0,.06.03.09.09.09.05,0,.12-.04.19-.1.07-.07.14-.14.19-.21Z"/>
  <path class="cls-1" d="M58.06,23.52c0-.06-.01-.12-.04-.16-.03-.05-.07-.07-.13-.07-.06,0-.11.02-.17.05-.06.03-.11.08-.17.15-.06.07-.12.17-.2.3-.07.14-.14.3-.19.48l.02.03c.1,0,.2-.04.33-.09.12-.05.23-.11.32-.2.09-.08.15-.17.19-.25.03-.09.05-.17.05-.24ZM58.1,24.69l.05.03s.01.02.02.03c0,.01,0,.04-.04.08-.14.17-.29.3-.45.42-.16.11-.33.17-.49.17s-.28-.05-.36-.16c-.08-.11-.12-.24-.12-.41,0-.11.02-.25.07-.42.04-.17.12-.34.23-.52.11-.19.22-.33.35-.45.13-.11.24-.19.35-.23.11-.04.2-.06.28-.06.12,0,.22.03.29.09.07.06.11.15.11.26,0,.14-.05.26-.15.38-.1.12-.25.23-.44.32s-.41.15-.65.18l-.03.03c-.03.14-.05.26-.05.36,0,.11.02.19.07.26.05.07.12.1.23.1.24,0,.48-.16.74-.47Z"/>
  <path class="cls-1" d="M60.09,24.23l.11-.35c.04-.1.05-.2.05-.29,0-.09-.03-.16-.08-.2-.05-.04-.11-.06-.19-.06-.06,0-.14.02-.22.06-.08.04-.17.11-.25.2-.08.1-.16.22-.24.36-.08.14-.14.3-.19.47-.05.17-.07.3-.07.4,0,.12.02.21.06.27.04.05.09.08.15.08.07,0,.16-.04.27-.1.11-.07.22-.19.34-.35.12-.16.2-.33.26-.48ZM60.68,24.78l.04.03s.02.05-.02.09c-.16.18-.29.32-.39.39-.1.08-.2.12-.28.12-.06,0-.11-.02-.14-.06-.03-.04-.05-.09-.05-.15s.04-.22.13-.48h0c-.09.12-.19.23-.29.34-.11.11-.22.19-.33.26s-.22.1-.32.1c-.06,0-.12-.02-.18-.05-.06-.03-.11-.09-.14-.16-.03-.08-.05-.16-.05-.25,0-.19.04-.38.11-.57.07-.19.16-.37.26-.51.1-.14.2-.26.28-.35.23-.23.48-.34.74-.34.13,0,.23.03.32.1h.03s.29-.95.29-.95c.03-.11.02-.17-.04-.19l-.17-.05s-.03-.02-.02-.04v-.04c.12-.02.24-.06.38-.11.06-.03.13-.05.2-.08.07-.03.11-.05.14-.05.02,0,.03,0,.03.01-.06.14-.12.32-.19.55l-.73,2.33c-.05.17-.08.29-.08.36,0,.06.02.09.07.09.04,0,.1-.03.17-.08.07-.06.15-.13.23-.23Z"/>
  <path class="cls-1" d="M64.27,23.95l.03-.03-.18-1.3h0l-.78,1.3s0,.02.02.03h.91ZM65.17,25.34h-.51s-.54,0-.54,0v-.04s0-.06.03-.06l.17-.03s.07-.02.1-.04c.03-.02.04-.07.03-.13,0-.06-.02-.18-.04-.35l-.08-.51s-.02-.03-.03-.03h-1.07l-.04.03-.31.51c-.11.18-.16.31-.16.39,0,.08.05.12.14.14l.15.02s.03.02.03.04c0,.03,0,.06-.02.07h-.49s-.45,0-.45,0v-.04s0-.02,0-.03c0-.01.01-.02.04-.03l.12-.03s.07-.03.11-.06c.04-.03.1-.11.17-.23.07-.12.12-.2.14-.23l1.59-2.63s.06,0,.1,0,.07,0,.09,0l.38,2.63c.02.15.04.27.08.36.03.09.08.15.15.16l.12.02s.03.02.03.04c0,.03,0,.06-.02.07Z"/>
  <path class="cls-1" d="M67.07,23.32c0,.07-.02.14-.05.21-.03.07-.07.1-.12.1h-.16c-.05-.01-.1,0-.15.05-.05.04-.11.11-.17.22-.09.15-.17.3-.24.45-.07.14-.14.32-.22.53l-.08.23c-.03.1-.07.16-.09.19-.03.02-.08.04-.17.04h-.15s.27-.78.27-.78c.06-.18.12-.35.16-.54.05-.18.07-.33.07-.42,0-.07-.02-.1-.07-.1-.03,0-.06.01-.09.04-.03.02-.07.05-.1.09-.03.03-.05.06-.07.09-.02.02-.03.04-.04.06-.01.01-.02.03-.03.04,0,.01-.02.02-.02.03l-.04-.02s-.01,0-.02-.02c0,0,0-.03.03-.07.07-.1.14-.19.22-.28.08-.09.16-.15.23-.19s.13-.06.18-.06c.1,0,.16.07.16.21,0,.16-.08.46-.23.9h.01l.35-.63c.11-.2.2-.33.28-.39.07-.06.14-.09.2-.09.05,0,.08.01.11.05.02.03.04.07.04.11Z"/>
  <path class="cls-1" d="M68.19,24.69l.05.03s.01.06-.02.1c-.16.18-.27.31-.35.38-.08.07-.15.13-.22.16-.07.03-.12.05-.17.05-.06,0-.11-.02-.14-.06-.03-.04-.05-.09-.05-.15,0-.09.04-.28.12-.54l.37-1.21s0-.02-.02-.03h-.28s-.02-.02-.02-.04c0-.02,0-.04.01-.07,0-.03.02-.04.03-.05h.31l.04-.03.16-.54s.03-.02.07-.03c.04-.01.1-.02.17-.02.04,0,.07,0,.09.02l-.17.56.02.03h.44s.02.02.02.04c0,.02,0,.04-.01.07s-.02.04-.03.05h-.47l-.04.03-.37,1.21c-.05.19-.08.31-.08.36,0,.06.02.09.07.09.09,0,.24-.13.46-.4Z"/>
  <path class="cls-1" d="M36.65,24.69l.05.03s.01.06-.02.1c-.16.18-.27.31-.35.38-.08.07-.15.13-.22.16-.07.03-.12.05-.17.05-.06,0-.11-.02-.14-.06-.03-.04-.05-.09-.05-.15,0-.09.04-.28.12-.54l.37-1.21s0-.02-.02-.03h-.28s-.02-.02-.02-.04c0-.02,0-.04.01-.07,0-.03.02-.04.03-.05h.31l.04-.03.16-.54s.03-.02.07-.03.1-.02.17-.02c.04,0,.07,0,.09.02l-.17.56.02.03h.44s.02.02.02.04c0,.02,0,.04-.01.07,0,.03-.02.04-.03.05h-.47l-.04.03-.37,1.21c-.05.19-.08.31-.08.36,0,.06.02.09.07.09.09,0,.24-.13.46-.4Z"/>
  <path class="cls-1" d="M69.77,24.69c0,.09-.03.19-.08.3s-.15.2-.28.29c-.13.09-.27.13-.41.13-.11,0-.2-.02-.27-.07-.07-.05-.11-.11-.11-.18,0-.06.01-.11.04-.16.03-.04.05-.07.09-.07.03,0,.07.03.13.08.06.06.12.1.18.12.06.02.12.04.19.04.08,0,.15-.03.2-.08s.07-.12.07-.19c0,0,0-.03,0-.05,0-.02-.01-.06-.03-.11-.02-.05-.08-.14-.18-.25-.1-.11-.17-.2-.21-.25-.04-.05-.07-.11-.09-.17-.02-.06-.03-.13-.03-.2,0-.05.02-.12.05-.2.03-.08.08-.16.16-.25.08-.08.17-.15.26-.19.1-.05.2-.07.3-.07.04,0,.09,0,.14.02.05.02.09.04.11.07.02.03.04.06.04.09,0,.03-.01.08-.04.13-.03.05-.06.08-.1.08-.03,0-.08-.02-.16-.07-.08-.05-.16-.07-.24-.07-.04,0-.08,0-.13.03-.04.02-.08.05-.1.09-.03.04-.04.09-.04.13,0,0,0,.03,0,.05,0,.02.01.06.03.11.02.05.08.14.19.25.1.11.17.2.21.25.04.05.07.11.09.17.02.06.03.13.03.2Z"/>
  <path class="cls-1" d="M72.51,25.35c-.06.02-.12.02-.16,0l-.47-2.62c-.03-.15-.05-.27-.08-.36-.03-.09-.08-.15-.15-.16l-.12-.02s-.03-.02-.03-.04c0-.03,0-.05.02-.07h.51s.53,0,.53,0v.05s0,.06-.03.06l-.18.02c-.08.01-.12.05-.13.11,0,.06,0,.2.05.41l.35,2.01h0l1.05-1.97c.07-.13.12-.24.13-.33.01-.09,0-.15-.02-.18-.03-.03-.06-.05-.1-.06l-.12-.02s-.03-.02-.03-.04c0-.03,0-.05.02-.07h.48s.47,0,.47,0v.04s0,.06-.03.06l-.12.03s-.07.03-.11.06c-.04.03-.08.08-.12.14s-.1.17-.18.32l-1.43,2.62Z"/>
  <path class="cls-1" d="M75.38,22.1c0,.06-.02.12-.06.16-.04.05-.09.07-.16.07-.06,0-.1-.02-.14-.05-.04-.04-.05-.08-.05-.14,0-.06.02-.12.06-.16.04-.04.09-.07.16-.07.06,0,.1.02.14.05.03.04.05.08.05.14ZM74.91,24.78l.04.03s.02.05-.02.09c-.14.17-.27.3-.39.38-.12.08-.21.13-.29.13-.06,0-.11-.02-.14-.06-.03-.04-.04-.09-.04-.16,0-.13.06-.34.18-.62l.26-.63c.06-.16.09-.26.09-.31s-.02-.08-.07-.08c-.01,0-.03,0-.04,0-.02,0-.04.02-.06.04-.02.02-.05.04-.07.07-.03.03-.05.06-.08.09-.03.04-.05.06-.05.06l-.04-.02s-.01,0-.02-.02c0,0,0-.03.03-.07.06-.09.14-.19.23-.28.09-.09.17-.16.24-.2.07-.04.13-.06.18-.06.04,0,.08.02.12.05.03.03.05.09.05.17,0,.1-.05.28-.16.55l-.3.71c-.07.17-.1.29-.1.36,0,.06.03.09.09.09s.12-.04.19-.1c.07-.07.14-.14.19-.21Z"/>
  <path class="cls-1" d="M76.79,23.52c0-.06-.01-.12-.04-.16-.03-.05-.07-.07-.13-.07s-.11.02-.17.05c-.06.03-.11.08-.17.15-.06.07-.12.17-.19.3-.07.14-.14.3-.19.48l.02.03c.1,0,.21-.04.33-.09.12-.05.23-.11.32-.2.09-.08.15-.17.19-.25.04-.09.05-.17.05-.24ZM76.83,24.69l.05.03s.01.02.02.03c0,.01,0,.04-.04.08-.14.17-.29.3-.45.42-.16.11-.33.17-.49.17s-.28-.05-.36-.16c-.08-.11-.12-.24-.12-.41,0-.11.02-.25.07-.42.05-.17.12-.34.23-.52.11-.19.23-.33.35-.45.13-.11.24-.19.35-.23.11-.04.2-.06.28-.06.12,0,.22.03.29.09.07.06.11.15.11.26,0,.14-.05.26-.15.38-.1.12-.25.23-.44.32s-.41.15-.65.18l-.03.03c-.04.14-.05.26-.05.36,0,.11.02.19.07.26.05.07.12.1.23.1.23,0,.48-.16.74-.47Z"/>
  <path class="cls-1" d="M79.52,24.78l.04.03s.02.05-.02.09c-.13.17-.26.29-.38.38-.12.09-.22.13-.3.13-.06,0-.11-.02-.14-.06-.03-.04-.04-.09-.04-.16,0-.13.06-.34.18-.62l.26-.62c.07-.18.1-.29.1-.34,0-.07-.04-.1-.11-.1-.09,0-.21.07-.35.21-.24.24-.42.46-.54.64-.11.18-.2.36-.26.52l-.08.23c-.04.1-.07.16-.09.19-.03.02-.08.04-.17.04h-.15s.49-1.4.49-1.4c.06-.16.09-.28.09-.36,0-.06-.02-.09-.07-.09-.03,0-.06.01-.09.04-.03.02-.07.05-.09.09-.03.03-.05.06-.07.09-.02.02-.03.04-.04.06-.01.01-.02.03-.03.04,0,.01-.02.02-.02.03l-.04-.02s-.01,0-.02-.02c0,0,0-.03.03-.07.07-.1.14-.19.22-.28.08-.09.16-.15.23-.19.07-.04.13-.06.18-.06.06,0,.11.02.14.06s.05.09.05.15c0,.04,0,.09-.03.16-.02.07-.06.2-.13.39l-.12.34h0c.14-.21.32-.42.55-.65.18-.17.32-.29.44-.36.12-.06.22-.09.31-.09.05,0,.09.02.13.05.04.04.06.09.06.16,0,.03,0,.07-.02.13-.01.06-.06.2-.16.42l-.3.71c-.07.17-.1.29-.1.36,0,.06.03.09.09.09.05,0,.12-.04.19-.1.07-.07.14-.14.19-.21Z"/>
  <path class="cls-1" d="M82.19,24.78l.04.03s.02.05-.02.09c-.13.17-.26.29-.38.38-.12.09-.22.13-.3.13-.06,0-.11-.02-.14-.06s-.04-.09-.04-.16c0-.13.06-.34.18-.62l.26-.62c.07-.18.1-.29.1-.34,0-.07-.04-.1-.11-.1-.09,0-.21.07-.35.21-.24.24-.42.46-.54.64-.11.18-.2.36-.26.52l-.08.23c-.04.1-.07.16-.09.19-.03.02-.08.04-.17.04h-.15s.49-1.4.49-1.4c.06-.16.09-.28.09-.36,0-.06-.02-.09-.07-.09-.03,0-.06.01-.09.04-.03.02-.06.05-.09.09-.03.03-.05.06-.07.09-.02.02-.03.04-.04.06s-.02.03-.03.04c0,.01-.02.02-.02.03l-.04-.02s-.01,0-.02-.02c0,0,0-.03.03-.07.07-.1.14-.19.22-.28.08-.09.16-.15.23-.19.07-.04.13-.06.18-.06.06,0,.11.02.14.06s.05.09.05.15c0,.04,0,.09-.03.16-.02.07-.06.2-.13.39l-.12.34h0c.14-.21.32-.42.55-.65.17-.17.32-.29.44-.36.12-.06.22-.09.31-.09.05,0,.1.02.13.05.04.04.06.09.06.16,0,.03,0,.07-.02.13-.01.06-.07.2-.16.42l-.3.71c-.07.17-.1.29-.1.36,0,.06.03.09.09.09s.12-.04.19-.1c.07-.07.14-.14.19-.21Z"/>
  <path class="cls-1" d="M84.16,23.99l.09-.24c.02-.06.03-.13.03-.19,0-.05-.02-.1-.05-.13-.03-.03-.08-.05-.14-.05s-.13.02-.21.05c-.08.04-.17.1-.26.19-.09.09-.18.21-.27.35-.09.14-.16.29-.22.46-.06.17-.09.31-.09.42,0,.06.01.12.04.17.02.05.06.07.12.07.06,0,.15-.04.27-.13.12-.09.25-.23.4-.43.15-.2.25-.37.3-.53ZM84.64,24.78l.04.03s.02.05-.02.09c-.27.34-.5.51-.67.51-.06,0-.11-.02-.14-.06-.03-.04-.05-.09-.05-.15,0-.12.07-.36.22-.71h0c-.09.14-.22.29-.36.45-.14.16-.28.28-.4.36-.12.08-.22.12-.3.12-.05,0-.1-.01-.15-.04-.05-.03-.08-.07-.11-.13-.03-.06-.04-.12-.04-.19,0-.16.05-.35.14-.57.09-.22.22-.43.37-.63.15-.2.33-.37.51-.49.19-.13.37-.19.55-.19.06,0,.11.01.16.04.04.03.07.06.09.1h0l.03-.05c.03-.06.06-.1.08-.12.02-.02.06-.03.11-.03h.1c-.06.14-.11.27-.16.42l-.4,1.13c-.05.15-.08.27-.08.35,0,.06.02.09.07.09.04,0,.1-.03.17-.08.07-.06.15-.13.23-.23Z"/>
  <g>
    <path class="cls-1" d="M.92,15.86v1.93c0,.3.05.53.16.68.11.15.3.22.56.22s.44-.07.55-.22.16-.37.16-.68v-1.93h.55v1.93c0,.25-.03.46-.09.63-.06.17-.15.31-.26.42-.11.11-.24.19-.4.24-.15.05-.32.07-.51.07-.41,0-.72-.11-.94-.33-.21-.22-.32-.57-.32-1.05v-1.92h.54Z"/>
    <path class="cls-1" d="M4.06,16.74v.34c.11-.14.22-.25.35-.32.13-.07.27-.1.42-.1.52,0,.78.29.78.86v1.55h-.51v-1.47c0-.19-.03-.32-.1-.4-.07-.08-.17-.12-.31-.12-.09,0-.17.02-.25.05-.08.03-.14.07-.2.13-.05.05-.1.12-.13.19-.03.07-.05.14-.05.22v1.4h-.51v-2.34h.5Z"/>
    <path class="cls-1" d="M6.83,16.74v2.34h-.51v-2.34h.51ZM6.84,15.86v.51h-.53v-.51h.53Z"/>
    <polygon class="cls-1" points="7.88 16.74 8.49 18.5 9.11 16.74 9.68 16.74 8.74 19.08 8.22 19.08 7.29 16.74 7.88 16.74"/>
    <path class="cls-1" d="M11.58,17.68c0-.19-.05-.34-.14-.46-.09-.11-.23-.17-.43-.17s-.33.06-.43.17c-.1.11-.16.26-.17.45h1.17ZM12.05,18.39c-.04.24-.15.43-.31.57-.17.13-.4.2-.71.2-.37,0-.66-.11-.85-.32-.19-.21-.29-.52-.29-.91,0-.2.03-.38.08-.54.06-.16.13-.29.23-.39.1-.11.22-.19.36-.24s.29-.08.46-.08c.18,0,.34.03.47.08.13.06.24.13.33.23.09.1.15.22.19.36.04.14.06.3.06.47v.23h-1.68c0,.21.06.39.16.52.1.13.26.2.46.2.16,0,.28-.03.36-.09.08-.06.14-.15.16-.27h.5Z"/>
    <path class="cls-1" d="M13.21,16.74v.35c.08-.12.18-.22.29-.28.11-.07.24-.1.36-.1.05,0,.09,0,.13,0,.03,0,.07,0,.1.01l-.06.47s-.07-.02-.11-.02c-.04,0-.08,0-.12,0-.1,0-.18.02-.25.05-.07.03-.13.07-.18.12-.05.05-.09.11-.11.17-.03.06-.04.13-.04.2v1.37h-.51v-2.34h.5Z"/>
    <path class="cls-1" d="M14.86,18.36c0,.08.03.14.06.19.03.05.07.09.12.12.05.03.11.05.17.06.07,0,.14.02.21.02.17,0,.29-.03.37-.08.08-.05.11-.13.11-.23,0-.08-.02-.14-.07-.2-.05-.05-.14-.09-.29-.12-.19-.03-.35-.06-.49-.09-.14-.03-.26-.07-.36-.12-.1-.05-.17-.12-.22-.2-.05-.08-.07-.19-.07-.34,0-.11.02-.21.07-.3.05-.09.11-.16.2-.23.09-.06.19-.11.31-.14.12-.03.25-.05.39-.05.18,0,.33.02.45.05.12.04.22.09.29.15.08.06.13.14.17.22.04.08.07.17.09.26l-.46.06c-.04-.12-.09-.2-.16-.26-.07-.06-.2-.09-.37-.09-.1,0-.18,0-.24.03-.06.02-.11.04-.15.07-.04.03-.06.06-.08.09-.01.03-.02.07-.02.1,0,.05,0,.09.02.13.01.03.03.06.07.08.03.02.07.04.13.05.05.01.12.03.2.05l.29.05c.16.03.29.06.39.1.1.04.19.09.25.15.06.06.1.13.13.21.02.08.04.17.04.27,0,.21-.08.39-.24.52-.16.13-.41.2-.74.2-.14,0-.27-.01-.39-.04-.12-.03-.24-.07-.34-.13-.1-.06-.18-.14-.24-.24-.06-.1-.1-.23-.11-.38h.49Z"/>
    <path class="cls-1" d="M17.55,16.74v2.34h-.51v-2.34h.51ZM17.56,15.86v.51h-.53v-.51h.53Z"/>
    <path class="cls-1" d="M18.14,17.14v-.41h.37v-.63h.51v.63h.58v.41h-.58v1.22c0,.12.02.21.07.26.05.05.12.08.22.08.05,0,.1,0,.15,0,.05,0,.09-.02.14-.03l.08.38c-.14.05-.3.07-.47.07-.26,0-.44-.07-.54-.2-.1-.13-.15-.33-.15-.6v-1.18h-.37Z"/>
    <path class="cls-1" d="M20.93,15.82v.51h-.49v-.51h.49ZM21.78,15.82v.51h-.49v-.51h.49ZM21.59,18.77c-.09.1-.19.19-.32.26-.13.07-.28.1-.46.1-.11,0-.21-.01-.31-.04-.1-.03-.18-.07-.25-.13-.07-.06-.13-.13-.17-.22-.04-.09-.06-.19-.06-.31,0-.16.04-.29.11-.39.07-.1.17-.18.28-.24.12-.06.25-.1.39-.12.14-.02.29-.04.43-.04l.35-.02v-.1c0-.18-.04-.3-.13-.37-.09-.07-.2-.1-.34-.1-.16,0-.28.03-.35.08-.08.05-.13.13-.15.23l-.47-.05c.04-.23.15-.4.31-.5.17-.11.39-.16.68-.16.19,0,.34.02.46.07.12.05.22.11.29.2.07.08.12.18.15.3.03.12.04.24.04.38v1.46h-.49v-.31ZM21.25,17.98c-.15,0-.28.03-.37.05-.09.02-.17.05-.22.09-.05.04-.08.08-.1.13-.02.05-.02.1-.02.16,0,.1.03.18.1.24.06.06.16.09.29.09.23,0,.39-.06.5-.17.11-.11.16-.27.16-.46v-.14h-.33Z"/>
    <path class="cls-1" d="M22.5,17.14v-.41h.37v-.63h.51v.63h.58v.41h-.58v1.22c0,.12.02.21.07.26.05.05.12.08.22.08.05,0,.1,0,.15,0,.05,0,.09-.02.14-.03l.08.38c-.14.05-.3.07-.47.07-.26,0-.44-.07-.54-.2-.1-.13-.15-.33-.15-.6v-1.18h-.37Z"/>
    <path class="cls-1" d="M25.75,17.14h-.36v-.41h.36v-.14c0-.25.07-.44.2-.57s.32-.2.56-.2c.16,0,.31.02.44.06l-.08.38c-.09-.03-.18-.04-.27-.04-.11,0-.2.03-.26.09-.06.06-.09.15-.09.27v.15h.57v.41h-.57v1.94h-.51v-1.94Z"/>
    <path class="cls-1" d="M28.16,15.82v.51h-.49v-.51h.49ZM29.01,15.82v.51h-.49v-.51h.49ZM27.83,16.74v1.47c0,.2.03.33.1.4.06.07.16.11.3.11.07,0,.14-.01.22-.04.07-.03.14-.07.2-.12.06-.05.1-.11.14-.18.04-.07.05-.15.05-.24v-1.4h.51v2.34h-.5v-.34c-.11.14-.23.25-.35.32-.13.07-.26.1-.41.1-.27,0-.47-.07-.59-.21-.12-.14-.18-.36-.18-.65v-1.55h.51Z"/>
    <path class="cls-1" d="M30.55,16.74v.35c.08-.12.18-.22.29-.28.11-.07.24-.1.36-.1.05,0,.09,0,.13,0,.03,0,.07,0,.1.01l-.06.47s-.07-.02-.11-.02c-.04,0-.08,0-.12,0-.1,0-.18.02-.25.05-.07.03-.13.07-.18.12-.05.05-.09.11-.11.17-.03.06-.04.13-.04.2v1.37h-.51v-2.34h.5Z"/>
    <path class="cls-1" d="M34.11,18.77c-.09.1-.19.19-.32.26-.13.07-.28.1-.46.1-.11,0-.21-.01-.31-.04-.1-.03-.18-.07-.25-.13-.07-.06-.13-.13-.17-.22-.04-.09-.06-.19-.06-.31,0-.16.04-.29.11-.39.07-.1.17-.18.28-.24.12-.06.25-.1.39-.12.14-.02.29-.04.43-.04l.35-.02v-.1c0-.18-.04-.3-.13-.37-.09-.07-.2-.1-.34-.1-.16,0-.28.03-.35.08-.08.05-.13.13-.15.23l-.47-.05c.04-.23.15-.4.31-.5.17-.11.39-.16.68-.16.19,0,.34.02.46.07.12.05.22.11.29.2.07.08.12.18.15.3.03.12.04.24.04.38v1.46h-.49v-.31ZM33.78,17.98c-.15,0-.28.03-.37.05-.09.02-.17.05-.22.09-.05.04-.08.08-.1.13-.02.05-.02.1-.02.16,0,.1.03.18.1.24.06.06.16.09.29.09.23,0,.39-.06.5-.17.11-.11.16-.27.16-.46v-.14h-.33Z"/>
    <path class="cls-1" d="M35.79,16.74v.34c.11-.14.22-.25.35-.32.13-.07.27-.1.42-.1.52,0,.78.29.78.86v1.55h-.51v-1.47c0-.19-.03-.32-.1-.4-.07-.08-.17-.12-.31-.12-.09,0-.17.02-.25.05-.08.03-.14.07-.2.13-.05.05-.1.12-.13.19-.03.07-.05.14-.05.22v1.4h-.51v-2.34h.5Z"/>
    <path class="cls-1" d="M39.65,17.82c0-.24-.05-.43-.15-.55-.1-.13-.25-.19-.45-.19-.19,0-.33.06-.44.2-.11.13-.16.32-.16.57s.05.43.15.56c.1.13.24.2.42.2.2,0,.35-.06.46-.19.11-.12.16-.3.16-.53v-.07ZM38.53,19.26c.03.13.08.21.16.26.08.05.21.07.39.07.14,0,.25-.03.33-.08.08-.05.14-.14.18-.25.04-.11.06-.26.06-.46v-.16c-.08.12-.19.21-.32.28-.13.06-.27.09-.43.09-.32,0-.56-.1-.73-.31-.17-.21-.26-.49-.26-.86s.09-.64.28-.86c.19-.22.44-.32.75-.32.29,0,.53.12.72.36v-.28h.5v1.99c0,.45-.09.78-.26.98-.17.2-.45.3-.82.3-.34,0-.59-.06-.76-.18-.17-.12-.27-.31-.3-.57h.51Z"/>
    <path class="cls-1" d="M42.4,17.68c0-.19-.05-.34-.14-.46-.09-.11-.23-.17-.43-.17s-.33.06-.43.17c-.1.11-.16.26-.17.45h1.17ZM42.87,18.39c-.04.24-.15.43-.31.57-.17.13-.4.2-.71.2-.37,0-.66-.11-.85-.32-.19-.21-.29-.52-.29-.91,0-.2.03-.38.08-.54.06-.16.13-.29.23-.39.1-.11.22-.19.36-.24.14-.06.29-.08.46-.08.18,0,.34.03.47.08.13.06.24.13.33.23.09.1.15.22.19.36.04.14.06.3.06.47v.23h-1.68c0,.21.06.39.16.52.1.13.26.2.46.2.16,0,.28-.03.37-.09.08-.06.14-.15.16-.27h.5Z"/>
    <polygon class="cls-1" points="43.78 16.74 44.18 18.45 44.67 16.75 45.14 16.75 45.62 18.45 46.02 16.74 46.55 16.74 45.87 19.08 45.36 19.08 44.89 17.38 44.41 19.08 43.9 19.08 43.22 16.74 43.78 16.74"/>
    <path class="cls-1" d="M48.43,18.77c-.09.1-.19.19-.32.26-.13.07-.28.1-.46.1-.11,0-.21-.01-.31-.04-.1-.03-.18-.07-.25-.13-.07-.06-.13-.13-.17-.22-.04-.09-.06-.19-.06-.31,0-.16.04-.29.11-.39.07-.1.17-.18.28-.24.12-.06.25-.1.39-.12.14-.02.29-.04.43-.04l.35-.02v-.1c0-.18-.04-.3-.13-.37-.09-.07-.2-.1-.34-.1-.16,0-.28.03-.35.08-.08.05-.13.13-.15.23l-.47-.05c.04-.23.15-.4.31-.5.17-.11.39-.16.68-.16.19,0,.34.02.46.07.12.05.22.11.29.2.07.08.12.18.15.3.03.12.04.24.04.38v1.46h-.49v-.31ZM48.09,17.98c-.15,0-.28.03-.37.05-.09.02-.17.05-.22.09-.05.04-.08.08-.1.13-.02.05-.02.1-.02.16,0,.1.03.18.1.24.06.06.16.09.29.09.23,0,.39-.06.5-.17.11-.11.16-.27.16-.46v-.14h-.33Z"/>
    <path class="cls-1" d="M50.1,16.74v.34c.11-.14.22-.25.35-.32.13-.07.27-.1.42-.1.52,0,.78.29.78.86v1.55h-.51v-1.47c0-.19-.03-.32-.1-.4-.07-.08-.17-.12-.31-.12-.09,0-.17.02-.25.05-.08.03-.14.07-.2.13-.05.05-.1.12-.13.19-.03.07-.05.14-.05.22v1.4h-.51v-2.34h.5Z"/>
    <path class="cls-1" d="M53.95,18.75c-.1.13-.21.23-.33.3-.12.07-.26.1-.43.1s-.31-.03-.44-.09c-.12-.06-.23-.14-.31-.25-.08-.11-.14-.24-.18-.39-.04-.15-.06-.32-.06-.5,0-.17.02-.33.06-.48.04-.15.1-.28.18-.39.08-.11.18-.2.3-.26.12-.07.26-.1.41-.11.03,0,.06,0,.09,0,.03,0,.06,0,.09,0,.11.01.21.04.3.09.1.05.19.12.28.23v-1.14h.51v3.22h-.5v-.33ZM53.94,17.86c0-.15-.02-.27-.05-.37-.03-.1-.08-.18-.13-.24-.06-.06-.12-.1-.19-.13-.07-.03-.15-.04-.23-.04-.19,0-.34.07-.44.2-.1.14-.16.34-.16.62,0,.15.01.28.04.38.03.1.07.19.12.26.05.07.11.11.18.14.07.03.14.05.23.05.19,0,.34-.06.45-.18.12-.12.17-.31.17-.57v-.12Z"/>
    <path class="cls-1" d="M55,17.14v-.41h.37v-.63h.51v.63h.58v.41h-.58v1.22c0,.12.02.21.07.26.05.05.12.08.22.08.05,0,.1,0,.15,0,.05,0,.09-.02.14-.03l.08.38c-.14.05-.3.07-.47.07-.26,0-.44-.07-.54-.2-.1-.13-.15-.33-.15-.6v-1.18h-.37Z"/>
    <path class="cls-1" d="M58.57,17.68c0-.19-.05-.34-.14-.46-.09-.11-.23-.17-.43-.17s-.33.06-.43.17c-.1.11-.16.26-.17.45h1.17ZM59.03,18.39c-.04.24-.15.43-.31.57-.17.13-.4.2-.71.2-.37,0-.66-.11-.85-.32-.19-.21-.29-.52-.29-.91,0-.2.03-.38.08-.54.06-.16.13-.29.23-.39s.22-.19.36-.24.29-.08.46-.08c.18,0,.34.03.47.08.13.06.24.13.33.23.09.1.15.22.19.36.04.14.06.3.06.47v.23h-1.68c0,.21.06.39.16.52s.26.2.46.2c.16,0,.28-.03.36-.09.08-.06.14-.15.16-.27h.5Z"/>
    <polygon class="cls-1" points="60.78 15.86 61.32 15.86 61.32 17.28 62.67 15.86 63.27 15.86 62.17 17.07 63.4 19.08 62.78 19.08 61.78 17.42 61.32 17.89 61.32 19.08 60.78 19.08 60.78 15.86"/>
    <path class="cls-1" d="M64.24,16.74v1.47c0,.2.03.33.1.4.06.07.16.11.3.11.07,0,.14-.01.22-.04.07-.03.14-.07.2-.12.06-.05.1-.11.14-.18.04-.07.05-.15.05-.24v-1.4h.51v2.34h-.5v-.34c-.11.14-.23.25-.35.32-.13.07-.26.1-.41.1-.27,0-.47-.07-.59-.21-.12-.14-.18-.36-.18-.65v-1.55h.51Z"/>
    <path class="cls-1" d="M66.96,16.74v.34c.11-.14.22-.25.35-.32.13-.07.27-.1.42-.1.52,0,.78.29.78.86v1.55h-.51v-1.47c0-.19-.03-.32-.1-.4-.07-.08-.17-.12-.31-.12-.09,0-.17.02-.25.05-.08.03-.14.07-.2.13-.05.05-.1.12-.13.19-.03.07-.05.14-.05.22v1.4h-.51v-2.34h.5Z"/>
    <path class="cls-1" d="M69.56,18.36c0,.08.03.14.06.19.03.05.07.09.12.12.05.03.11.05.17.06.07,0,.14.02.21.02.17,0,.29-.03.37-.08.08-.05.11-.13.11-.23,0-.08-.02-.14-.07-.2s-.14-.09-.29-.12c-.19-.03-.35-.06-.49-.09-.14-.03-.26-.07-.36-.12-.1-.05-.17-.12-.22-.2-.05-.08-.07-.19-.07-.34,0-.11.02-.21.07-.3.05-.09.11-.16.2-.23.09-.06.19-.11.31-.14.12-.03.25-.05.39-.05.18,0,.33.02.45.05.12.04.22.09.29.15.08.06.13.14.17.22.04.08.07.17.09.26l-.46.06c-.04-.12-.09-.2-.16-.26-.07-.06-.2-.09-.37-.09-.1,0-.18,0-.24.03-.06.02-.11.04-.15.07-.04.03-.06.06-.08.09-.01.03-.02.07-.02.1,0,.05,0,.09.02.13.01.03.03.06.07.08.03.02.07.04.13.05.05.01.12.03.2.05l.29.05c.16.03.29.06.39.1.1.04.19.09.25.15.06.06.1.13.13.21.02.08.04.17.04.27,0,.21-.08.39-.24.52-.16.13-.41.2-.74.2-.14,0-.27-.01-.39-.04-.12-.03-.24-.07-.34-.13-.1-.06-.18-.14-.24-.24-.06-.1-.1-.23-.11-.38h.49Z"/>
    <path class="cls-1" d="M71.46,17.14v-.41h.37v-.63h.51v.63h.58v.41h-.58v1.22c0,.12.02.21.07.26.05.05.12.08.22.08.05,0,.1,0,.15,0,.05,0,.09-.02.14-.03l.08.38c-.14.05-.3.07-.47.07-.26,0-.44-.07-.54-.2-.1-.13-.15-.33-.15-.6v-1.18h-.37Z"/>
    <polygon class="cls-1" points="74.81 15.86 75.4 18.3 76.02 15.88 76.6 15.88 77.22 18.3 77.8 15.86 78.38 15.86 77.49 19.08 76.95 19.08 76.29 16.55 75.65 19.08 75.12 19.08 74.2 15.86 74.81 15.86"/>
    <path class="cls-1" d="M79.37,16.74v2.34h-.51v-2.34h.51ZM79.38,15.86v.51h-.53v-.51h.53Z"/>
    <path class="cls-1" d="M81.7,17.68c0-.19-.05-.34-.14-.46-.09-.11-.23-.17-.43-.17s-.33.06-.43.17c-.1.11-.16.26-.17.45h1.17ZM82.17,18.39c-.04.24-.15.43-.31.57-.16.13-.4.2-.71.2-.37,0-.66-.11-.85-.32-.19-.21-.29-.52-.29-.91,0-.2.03-.38.08-.54.06-.16.13-.29.23-.39.1-.11.22-.19.36-.24.14-.06.29-.08.46-.08.18,0,.34.03.47.08.13.06.24.13.33.23.09.1.15.22.19.36.04.14.06.3.06.47v.23h-1.68c0,.21.06.39.16.52.1.13.26.2.46.2.16,0,.28-.03.37-.09.08-.06.14-.15.16-.27h.5Z"/>
    <path class="cls-1" d="M83.24,16.74v.34c.11-.14.22-.25.35-.32.13-.07.27-.1.42-.1.52,0,.78.29.78.86v1.55h-.51v-1.47c0-.19-.03-.32-.1-.4-.07-.08-.17-.12-.31-.12-.09,0-.17.02-.25.05-.08.03-.14.07-.2.13s-.1.12-.13.19c-.03.07-.05.14-.05.22v1.4h-.51v-2.34h.5Z"/>
  </g>
</svg>