<?xml version="1.0" encoding="UTF-8"?>
<svg width="218px" height="50px" viewBox="0 0 218 50" version="1.1" xmlns="http://www.w3.org/2000/svg" xmlns:xlink="http://www.w3.org/1999/xlink">
    <title>Artboard</title>
    <g id="Artboard" stroke="none" stroke-width="1" fill="none" fill-rule="evenodd">
        <g id="MOME-logo-Copy" fill="#000000" fill-rule="nonzero">
            <rect id="Rectangle" x="0" y="1.41437309" width="9.90061162" height="47.1712538"></rect>
            <rect id="Rectangle" x="37.2706422" y="1.41437309" width="9.90061162" height="47.1712538"></rect>
            <rect id="Rectangle" x="18.616208" y="1.41437309" width="9.90061162" height="47.1712538"></rect>
            <rect id="Rectangle" x="113.2263" y="1.41437309" width="9.90061162" height="47.1712538"></rect>
            <rect id="Rectangle" x="150.496942" y="1.41437309" width="9.90061162" height="47.1712538"></rect>
            <rect id="Rectangle" x="131.842508" y="1.41437309" width="9.90061162" height="47.1712538"></rect>
            <rect id="Rectangle" x="169.83945" y="39.1437309" width="47.1712538" height="9.44189602"></rect>
            <rect id="Rectangle" x="169.83945" y="20.2981651" width="47.1712538" height="9.44189602"></rect>
            <rect id="Rectangle" x="169.83945" y="1.41437309" width="47.1712538" height="9.44189602"></rect>
            <path d="M80.1987768,0 C66.3990826,0 55.1987768,11.2003058 55.1987768,25 C55.1987768,38.7996942 66.3990826,50 80.1987768,50 C93.9984709,50 105.198777,38.7996942 105.198777,25 C105.198777,11.2003058 93.9984709,0 80.1987768,0 M80.1987768,9.90061162 C88.264526,9.90061162 94.8394495,16.6284404 94.8394495,25 C94.8394495,33.3715596 88.3027523,40.0993884 80.1987768,40.0993884 C72.0948012,40.0993884 65.558104,33.3715596 65.558104,25 C65.558104,16.6284404 72.0948012,9.90061162 80.1987768,9.90061162" id="Shape"></path>
        </g>
    </g>
</svg>