<svg xmlns="http://www.w3.org/2000/svg" viewBox="0 0 2306.01 2365.57">
  <defs>
    <style>
      .cls-1 {
        fill: #010101;
      }
    </style>
  </defs>
  <g id="Layer_2" data-name="Layer 2">
    <g id="Layer_1-2" data-name="Layer 1">
      <g>
        <rect class="cls-1" x="2.62" y="15" width="105.01" height="500.05"/>
        <rect class="cls-1" x="397.66" y="15" width="105.01" height="500.05"/>
        <rect class="cls-1" x="200.14" y="15" width="105.01" height="500.05"/>
        <rect class="cls-1" x="1202.75" y="15" width="105.01" height="500.05"/>
        <rect class="cls-1" x="1597.79" y="15" width="105.01" height="500.05"/>
        <rect class="cls-1" x="1400.27" y="15" width="105.01" height="500.05"/>
        <rect class="cls-1" x="1802.81" y="415.04" width="500.05" height="100.01"/>
        <rect class="cls-1" x="1802.81" y="215.02" width="500.05" height="100.01"/>
        <rect class="cls-1" x="1802.81" y="15" width="500.05" height="100.01"/>
        <path class="cls-1" d="M852.71,105c85.61,0,155,71.5,155,160s-69.26,160-155,160-155-71.5-155-160c0-88.37,69.27-160,155-160m0-105c-146.37,0-265,118.66-265,265s118.66,265,265,265,265-118.66,265-265S999.08,0,852.71,0"/>
        <rect class="cls-1" x="2.62" y="665.07" width="2300.25" height="100.01"/>
        <rect class="cls-1" x="1996.1" y="2215.24" width="306.77" height="100.01"/>
        <rect class="cls-1" x="2.62" y="1698.51" width="2300.25" height="100.01"/>
        <rect class="cls-1" x="2.62" y="1181.79" width="2300.25" height="100.01"/>
        <polygon class="cls-1" points="2.75 883.22 48.43 883.22 101.2 1005.51 156.52 883.22 194.83 883.22 194.83 1060.83 157.28 1060.83 157.28 956.54 111.86 1060.83 84.71 1060.83 40.31 956.54 40.31 1060.83 2.75 1060.83 2.75 883.22"/>
        <path class="cls-1" d="M440,972c0,52-39.08,91.35-90.84,91.35S258.53,1024,258.53,972s38.82-91.34,90.58-91.34S440,920,440,972M297.1,972c0,31.21,22.32,54.81,52,54.81s52-23.6,52-54.81-22.33-54.8-52-54.8-52,23.59-52,54.8"/>
        <polygon class="cls-1" points="654.36 883.22 654.36 1060.83 616.56 1060.83 616.56 986.99 540.95 986.99 540.95 1060.83 503.39 1060.83 503.39 883.22 540.95 883.22 540.95 950.96 616.56 950.96 616.56 883.22 654.36 883.22"/>
        <path class="cls-1" d="M899.23,972c0,52-39.07,91.35-90.83,91.35S717.81,1024,717.81,972s38.82-91.34,90.59-91.34S899.23,920,899.23,972m-142.85,0c0,31.21,22.33,54.81,52,54.81s52-23.6,52-54.81-22.33-54.8-52-54.8-52,23.59-52,54.8"/>
        <polygon class="cls-1" points="1000.23 883.22 1000.23 1024.8 1081.68 1024.8 1081.68 1060.83 962.68 1060.83 962.68 883.22 1000.23 883.22"/>
        <polygon class="cls-1" points="1139.54 883.22 1178.87 947.66 1218.2 883.22 1262.09 883.22 1197.39 985.72 1197.39 1060.83 1159.59 1060.83 1159.59 985.72 1093.62 883.22 1139.54 883.22"/>
        <rect class="cls-1" x="1300.93" y="955.28" width="129.91" height="33.49"/>
        <polygon class="cls-1" points="1531.08 883.22 1603.39 986.74 1603.39 883.22 1640.94 883.22 1640.94 1060.83 1609.48 1060.83 1536.66 957.31 1536.66 1060.83 1499.11 1060.83 1499.11 883.22 1531.08 883.22"/>
        <path class="cls-1" d="M1817.3,1031.14h-68.51l-11.42,29.69h-39.84l70.54-177.62h30.45l70.79,177.62h-40.85Zm-12.44-32.22-21.57-56.84-22.07,56.84Z"/>
        <path class="cls-1" d="M2098.19,977.86c0,51-35.78,85.51-86.78,85.51-51.51,0-90.33-39.33-90.33-91.35s38.82-91.34,90.59-91.34c36,0,70.79,19,79.67,46.18l-35.78,16c-6.34-15.47-24.1-25.62-43.89-25.62-29.69,0-52,23.59-52,54.8s22.33,54.81,54.81,54.81c26.64,0,42.88-16.75,44.15-35.52v-.26h-49.73V960.61h88.29a134.73,134.73,0,0,1,1,17.25"/>
        <polygon class="cls-1" points="2183.46 883.22 2222.79 947.66 2262.11 883.22 2306.01 883.22 2241.31 985.72 2241.31 1060.83 2203.5 1060.83 2203.5 985.72 2137.53 883.22 2183.46 883.22"/>
        <path class="cls-1" d="M203.22,1475.49v79.59H166.31v-71c0-15.13-8.58-24.52-21.84-24.52-12.22,0-23.13,8.08-23.13,24.52v71H84.68v-71c0-15.13-8.57-24.52-22.09-24.52-12,0-22.61,7.82-22.61,24.52v71H3.33V1427H40v15.39c9.61-14.09,24.69-18,36.39-18,16.63,0,28.33,5.48,36.13,18.79,7.54-11,22.35-18.79,38.47-18.79,30.41,0,52.25,20.09,52.25,51.14"/>
        <path class="cls-1" d="M355.26,1427v128.12H318.61v-17c-7.8,12.53-19.75,19.58-34.57,19.58-32.76,0-52.51-22.18-52.51-58.45V1427h36.65v67.58c0,17,9.88,27.92,25.22,27.92,15.07,0,25.21-11,25.21-27.92V1427Z"/>
        <polygon class="cls-1" points="456.89 1555.08 425.69 1555.08 372.67 1426.96 412.44 1426.96 441.29 1504.98 469.62 1426.96 509.65 1426.96 456.89 1555.08"/>
        <path class="cls-1" d="M639.62,1499.76H547.86c3.38,17.48,15.34,26.62,32.75,26.62,11.44,0,23.4-5.22,27.81-13.05l28.6,17.48c-9.36,17-30.67,26.88-57.19,26.88-37.43,0-67.06-29.23-67.06-67.32,0-37.32,29.11-66,66.28-66,34.57,0,61.61,26.88,61.61,61.06a94.52,94.52,0,0,1-1,14.35M604,1476.28c-1.56-12.79-13.26-22.19-26.78-22.19-15.34,0-25.47,8.35-28.85,22.19Zm-11.18-63.41H559l22.35-40.71h43.15Z"/>
        <path class="cls-1" d="M652.08,1541.51,663,1515.94c12,8.87,27.55,13.57,43.14,13.57,11.44,0,18.72-4.44,18.72-10.44-.26-19.57-68.88-5-69.4-52.19-.26-24,21-42.53,51.21-42.53,17.93,0,35.87,4.44,48.61,14.61l-10.4,26.62c-9.88-7.57-26-13.31-39.77-13.31-9.36,0-15.6,4.43-15.6,10.17.26,18.53,69.4,8.35,70.18,54.28,0,23.75-20.79,41-50.43,41-21.83,0-41.84-5.22-57.18-16.18"/>
        <polygon class="cls-1" points="888.1 1453.05 826.23 1519.85 888.88 1519.85 888.88 1555.08 772.94 1555.08 772.94 1528.99 835.07 1461.92 777.62 1461.92 777.62 1426.96 888.1 1426.96 888.1 1453.05"/>
        <path class="cls-1" d="M1032.61,1499.76H940.85c3.38,17.48,15.34,26.62,32.76,26.62,11.43,0,23.39-5.22,27.81-13.05l28.59,17.48c-9.36,17-30.67,26.88-57.18,26.88-37.43,0-67.07-29.23-67.07-67.32,0-37.32,29.12-66,66.29-66,34.57,0,61.6,26.88,61.6,61.06a93.25,93.25,0,0,1-1,14.35M997,1476.28c-1.56-12.79-13.26-22.18-26.77-22.18-15.34,0-25.48,8.35-28.86,22.18Z"/>
        <path class="cls-1" d="M1136.57,1553.51c-4.68,2.35-12,3.66-18.71,3.66-29.89,0-50.95-19.05-50.95-52.19v-43.06h-23.65v-35h23.65V1393.3h36.65V1427H1135v35h-31.45v41.23c0,12,9.1,19.57,19.76,19.57a38.78,38.78,0,0,0,11.44-1.83Z"/>
        <path class="cls-1" d="M1200,1387a22.36,22.36,0,1,1-22.35-22.18A22.57,22.57,0,0,1,1200,1387m-3.9,168h-36.65V1427h36.65Z"/>
        <path class="cls-1" d="M1401.69,1499.76h-91.76c3.38,17.48,15.34,26.62,32.76,26.62,11.43,0,23.39-5.22,27.81-13.05l28.59,17.48c-9.35,17-30.67,26.88-57.18,26.88-37.43,0-67.07-29.23-67.07-67.32,0-37.32,29.12-66,66.29-66,34.57,0,61.6,26.88,61.6,61.06a93.25,93.25,0,0,1-1,14.35m-35.61-23.48c-1.56-12.79-13.25-22.18-26.77-22.18-15.34,0-25.48,8.35-28.85,22.18Z"/>
        <path class="cls-1" d="M1555.56,1426.7v119.24c0,38.89-31.71,61.85-70.18,61.85-21.06,0-46.27-7.57-58.75-20.36l17.94-25.57c11.44,8.88,25.74,13.05,40.81,13.05,15.6,0,33.53-11.48,33.53-29v-12.52c-8.84,13-22.61,20.35-40.55,20.35-33,0-59.26-29.22-59.26-65,0-35.49,26.25-64.71,59.26-64.71,17.94,0,31.71,7.31,40.55,20.35V1426.7Zm-36.65,62.1c0-17.22-14-30.53-32-30.53-17.68,0-32,13.57-32,30.53,0,17.22,14.29,30.79,32,30.79,17.94,0,32-13.31,32-30.79"/>
        <polygon class="cls-1" points="1706.06 1426.96 1635.1 1597.61 1595.85 1597.61 1619.5 1544.64 1570.37 1426.96 1609.88 1426.96 1638.21 1501.85 1666.55 1426.96 1706.06 1426.96"/>
        <path class="cls-1" d="M1836,1499.76h-91.76c3.38,17.48,15.34,26.62,32.76,26.62,11.43,0,23.39-5.22,27.81-13.05l28.59,17.48c-9.36,17-30.67,26.88-57.18,26.88-37.44,0-67.07-29.23-67.07-67.32,0-37.32,29.11-66,66.29-66,34.57,0,61.6,26.88,61.6,61.06a93.25,93.25,0,0,1-1,14.35m-35.61-23.48c-1.56-12.79-13.26-22.18-26.77-22.18-15.34,0-25.48,8.35-28.86,22.18Z"/>
        <path class="cls-1" d="M1940,1553.51c-4.68,2.35-12,3.66-18.71,3.66-29.89,0-51-19.05-51-52.19v-43.06h-23.65v-35h23.65V1393.3H1907V1427h31.45v35H1907v41.23c0,12,9.1,19.57,19.76,19.57a38.71,38.71,0,0,0,11.43-1.83Z"/>
        <path class="cls-1" d="M2078.79,1499.76H1987c3.37,17.48,15.33,26.62,32.75,26.62,11.43,0,23.39-5.22,27.81-13.05l28.59,17.48c-9.35,17-30.67,26.88-57.18,26.88-37.43,0-67.07-29.23-67.07-67.32,0-37.32,29.12-66,66.29-66,34.57,0,61.6,26.88,61.6,61.06a93.19,93.19,0,0,1-1,14.35m-35.62-23.48c-1.56-12.79-13.25-22.18-26.77-22.18-15.34,0-25.47,8.35-28.85,22.18Z"/>
        <path class="cls-1" d="M2302.84,1475.49v79.59h-36.91v-71c0-15.13-8.58-24.52-21.84-24.52-12.22,0-23.13,8.08-23.13,24.52v71H2184.3v-71c0-15.13-8.57-24.52-22.09-24.52-12,0-22.61,7.82-22.61,24.52v71H2103V1427h36.65v15.39c9.61-14.09,24.69-18,36.39-18,16.63,0,28.33,5.48,36.13,18.79,7.54-11,22.35-18.79,38.47-18.79,30.41,0,52.25,20.09,52.25,51.14"/>
        <path class="cls-1" d="M123.13,1945.65v122.08H88.2v-16.16c-7.43,11.93-18.83,18.64-32.95,18.64-31.22,0-50-21.13-50-55.69v-68.87H40.14V2010c0,16.16,9.41,26.61,24,26.61,14.37,0,24-10.45,24-26.61v-64.39Z"/>
        <path class="cls-1" d="M268,1998.61v69.12H233.11v-64.65c0-15.91-9.67-26.35-24-26.35-14.61,0-24,10.44-24,26.35v64.65H150.11V1945.65H185v15.91c7.68-11.69,19.08-18.4,33-18.4,31.22,0,50.05,20.89,50.05,55.45"/>
        <path class="cls-1" d="M333.66,1907.6a21.31,21.31,0,1,1-21.3-21.13,21.51,21.51,0,0,1,21.3,21.13M330,2067.73H295V1945.65H330Z"/>
        <polygon class="cls-1" points="427.06 2067.73 397.33 2067.73 346.79 1945.65 384.69 1945.65 412.19 2019.99 439.19 1945.65 477.35 1945.65 427.06 2067.73"/>
        <path class="cls-1" d="M601.2,2015H513.74c3.23,16.67,14.62,25.37,31.22,25.37,10.9,0,22.3-5,26.51-12.43l27.26,16.65c-8.92,16.17-29.24,25.61-54.51,25.61-35.68,0-63.92-27.84-63.92-64.14,0-35.56,27.75-62.91,63.18-62.91,32.95,0,58.71,25.61,58.71,58.18a87.92,87.92,0,0,1-1,13.67m-33.94-22.37c-1.49-12.18-12.63-21.13-25.52-21.13-14.61,0-24.28,8-27.5,21.13Z"/>
        <path class="cls-1" d="M704.49,1945.9l-4,34.06a40.56,40.56,0,0,0-15.61-3c-11.64,0-25.76,9-25.76,30.59v60.17H624.22V1945.65h34.93v15.16c5.2-10.44,18.58-17.65,29.23-17.65,6.44,0,12.39,1,16.11,2.74"/>
        <path class="cls-1" d="M708.43,2054.8l10.41-24.37c11.4,8.45,26.26,12.93,41.13,12.93,10.9,0,17.83-4.22,17.83-9.94-.24-18.65-65.65-4.73-66.15-49.73-.24-22.88,20.07-40.53,48.81-40.53,17.1,0,34.19,4.23,46.33,13.92l-9.91,25.36c-9.41-7.21-24.77-12.67-37.91-12.67-8.91,0-14.86,4.22-14.86,9.69.25,17.66,66.15,8,66.89,51.72,0,22.62-19.82,39-48.06,39-20.81,0-39.89-5-54.51-15.41"/>
        <path class="cls-1" d="M870.93,1907.6a21.31,21.31,0,1,1-21.3-21.13,21.51,21.51,0,0,1,21.3,21.13m-3.71,160.13H832.29V1945.65h34.93Z"/>
        <path class="cls-1" d="M973.24,2066.23c-4.46,2.24-11.39,3.49-17.84,3.49-28.49,0-48.55-18.15-48.55-49.73v-41H884.3v-33.31h22.55v-32.08h34.93v32.08h30V1979h-30v39.29c0,11.44,8.67,18.65,18.83,18.65a37.26,37.26,0,0,0,10.9-1.74Z"/>
        <polygon class="cls-1" points="1113.95 1945.65 1046.31 2108.25 1008.9 2108.25 1031.44 2057.78 984.62 1945.65 1022.28 1945.65 1049.28 2017.01 1076.29 1945.65 1113.95 1945.65"/>
        <path class="cls-1" d="M1304.92,2006.81c0,36.3-27.5,63.4-63.18,63.4-35.92,0-63.17-27.1-63.17-63.4s27.25-63.65,63.17-63.65c35.68,0,63.18,27.35,63.18,63.65m-92.16,0c0,16.91,12.39,29.84,29,29.84,16.36,0,29-12.93,29-29.84,0-17.4-12.63-30.08-29-30.08-16.59,0-29,12.68-29,30.08"/>
        <path class="cls-1" d="M1372.78,1945.65h30V1979h-30v88.77h-34.94V1979H1315.3v-33.31h22.54v-9c0-31.58,20.07-49.73,48.57-49.73,6.44,0,13.37,1.49,17.83,3.73l-1.73,30.83a45.31,45.31,0,0,0-10.9-1.74c-10.16,0-18.83,7.46-18.83,18.65Z"/>
        <path class="cls-1" d="M1599.94,1945.65v122.08H1565v-17.41c-8.42,12.69-21.55,19.89-38.65,19.89-31.46,0-56.48-28.59-56.48-63.65s25-63.4,56.48-63.4c17.1,0,30.23,7.21,38.65,19.89v-17.4ZM1565,2006.56c0-16.9-13.38-30.08-30.47-30.08a30.09,30.09,0,1,0,0,60.17c17.09,0,30.47-12.93,30.47-30.09"/>
        <path class="cls-1" d="M1707.18,1945.9l-4,34.06a40.6,40.6,0,0,0-15.61-3c-11.65,0-25.77,9-25.77,30.59v60.17h-34.93V1945.65h34.93v15.16c5.21-10.44,18.59-17.65,29.24-17.65,6.44,0,12.38,1,16.1,2.74"/>
        <path class="cls-1" d="M1806.76,2066.23c-4.46,2.24-11.4,3.49-17.84,3.49-28.49,0-48.56-18.15-48.56-49.73v-41h-22.54v-33.31h22.54v-32.08h34.94v32.08h30V1979h-30v39.29c0,11.44,8.67,18.65,18.82,18.65a37.33,37.33,0,0,0,10.91-1.74Z"/>
        <path class="cls-1" d="M2006.42,1945.65v122.08h-34.94v-17.41c-8.42,12.69-21.55,19.89-38.65,19.89-31.46,0-56.48-28.59-56.48-63.65s25-63.4,56.48-63.4c17.1,0,30.23,7.21,38.65,19.89v-17.4Zm-34.94,60.91c0-16.9-13.38-30.08-30.47-30.08a30.09,30.09,0,1,0,0,60.17c17.09,0,30.47-12.93,30.47-30.09"/>
        <path class="cls-1" d="M2151.32,1998.61v69.12h-34.93v-64.65c0-15.91-9.66-26.35-24-26.35-14.62,0-24,10.44-24,26.35v64.65h-34.93V1945.65h34.93v15.91c7.68-11.69,19.08-18.4,32.95-18.4,31.22,0,50.05,20.89,50.05,55.45"/>
        <path class="cls-1" d="M2303.16,1893.68v174h-34.93v-17.41c-8.42,12.69-21.56,19.89-38.65,19.89-31.46,0-56.49-28.59-56.49-63.65s25-63.4,56.49-63.4c17.09,0,30.23,7.21,38.65,19.89v-69.37Zm-34.93,112.88c0-16.9-13.38-30.08-30.47-30.08a30.09,30.09,0,1,0,0,60.17c17.09,0,30.47-12.93,30.47-30.09"/>
        <path class="cls-1" d="M130.07,2141.3v174H95.14v-17.4c-8.43,12.68-21.56,19.89-38.65,19.89C25,2317.83,0,2289.24,0,2254.18s25-63.41,56.49-63.41c17.09,0,30.22,7.22,38.65,19.9V2141.3ZM95.14,2254.18c0-16.91-13.38-30.09-30.47-30.09a30.09,30.09,0,1,0,0,60.17c17.09,0,30.47-12.93,30.47-30.08"/>
        <path class="cls-1" d="M271.51,2262.63H184.05c3.23,16.66,14.62,25.36,31.22,25.36,10.9,0,22.3-5,26.51-12.43L269,2292.22c-8.92,16.16-29.23,25.61-54.5,25.61-35.68,0-63.92-27.85-63.92-64.15,0-35.55,27.75-62.91,63.18-62.91,33,0,58.71,25.61,58.71,58.19a89.25,89.25,0,0,1-1,13.67m-33.94-22.38c-1.49-12.18-12.64-21.13-25.52-21.13-14.62,0-24.28,8-27.5,21.13Z"/>
        <path class="cls-1" d="M283.38,2302.42l10.4-24.37c11.4,8.45,26.26,12.93,41.13,12.93,10.9,0,17.84-4.23,17.84-9.95-.25-18.65-65.66-4.72-66.15-49.73-.25-22.87,20.06-40.53,48.8-40.53,17.1,0,34.2,4.23,46.33,13.93l-9.91,25.36c-9.41-7.21-24.77-12.68-37.9-12.68-8.92,0-14.87,4.23-14.87,9.7.25,17.65,66.15,8,66.89,51.71,0,22.63-19.82,39-48.06,39-20.81,0-39.88-5-54.5-15.41"/>
        <path class="cls-1" d="M445.88,2155.22a21.31,21.31,0,1,1-21.31-21.13,21.51,21.51,0,0,1,21.31,21.13m-3.72,160.12H407.23V2193.26h34.93Z"/>
        <path class="cls-1" d="M594.27,2193v113.63c0,37.05-30.23,58.93-66.9,58.93-20.06,0-44.1-7.21-56-19.4l17.1-24.36c10.9,8.45,24.52,12.43,38.89,12.43,14.87,0,32-10.94,32-27.6v-11.93c-8.42,12.43-21.55,19.39-38.65,19.39-31.46,0-56.48-27.85-56.48-61.91,0-33.82,25-61.66,56.48-61.66,17.1,0,30.23,7,38.65,19.39V2193Zm-34.94,59.18c0-16.41-13.38-29.09-30.47-29.09-16.85,0-30.47,12.93-30.47,29.09,0,16.41,13.62,29.34,30.47,29.34,17.09,0,30.47-12.68,30.47-29.34"/>
        <path class="cls-1" d="M739.17,2246.22v69.12H704.24V2250.7c0-15.91-9.66-26.36-24-26.36-14.61,0-24,10.45-24,26.36v64.64H621.24V2193.26h34.93v15.92c7.68-11.69,19.08-18.41,33-18.41,31.21,0,50,20.89,50,55.45"/>
        <path class="cls-1" d="M949,2254.18c0,35.06-25,63.65-56.49,63.65-16.85,0-30-7-38.4-19.64v17.15H819.16v-174h34.93v69.12c8.42-12.68,21.55-19.65,38.4-19.65,31.47,0,56.49,28.35,56.49,63.41m-34,0a30.24,30.24,0,0,0-30.47-30.09c-17.09,0-30.47,13.18-30.47,30.09,0,17.15,13.38,30.08,30.47,30.08A30.07,30.07,0,0,0,915,2254.18"/>
        <path class="cls-1" d="M1088.93,2193.26v122.08H1054v-16.16c-7.43,11.94-18.83,18.65-33,18.65-31.21,0-50-21.13-50-55.7v-68.87h34.93v64.4c0,16.16,9.41,26.6,24,26.6,14.37,0,24-10.44,24-26.6v-64.4Z"/>
        <path class="cls-1" d="M1240.77,2141.3v174h-34.94v-17.4c-8.42,12.68-21.55,19.89-38.64,19.89-31.47,0-56.49-28.59-56.49-63.65s25-63.41,56.49-63.41c17.09,0,30.22,7.22,38.64,19.9V2141.3Zm-34.94,112.88c0-16.91-13.37-30.09-30.47-30.09a30.09,30.09,0,1,0,0,60.17c17.1,0,30.47-12.93,30.47-30.08"/>
        <path class="cls-1" d="M1391.38,2193.26v122.08h-34.94v-17.4c-8.42,12.68-21.55,19.89-38.65,19.89-31.46,0-56.48-28.59-56.48-63.65s25-63.41,56.48-63.41c17.1,0,30.23,7.22,38.65,19.9v-17.41Zm-34.94,60.92c0-16.91-13.38-30.09-30.47-30.09a30.09,30.09,0,1,0,0,60.17c17.09,0,30.47-12.93,30.47-30.08"/>
        <path class="cls-1" d="M1548.17,2254.18c0,35.06-25,63.65-56.48,63.65-16.85,0-30-7-38.41-19.64v57.43h-34.93V2193.26h34.93v17.16c8.43-12.68,21.56-19.65,38.41-19.65,31.46,0,56.48,28.35,56.48,63.41m-33.94,0a30.25,30.25,0,0,0-30.47-30.09c-17.1,0-30.48,13.18-30.48,30.09,0,17.15,13.38,30.08,30.48,30.08a30.08,30.08,0,0,0,30.47-30.08"/>
        <path class="cls-1" d="M1684.66,2262.63H1597.2c3.22,16.66,14.62,25.36,31.22,25.36,10.9,0,22.3-5,26.51-12.43l27.25,16.66c-8.92,16.16-29.24,25.61-54.51,25.61-35.67,0-63.92-27.85-63.92-64.15,0-35.55,27.75-62.91,63.18-62.91,33,0,58.72,25.61,58.72,58.19a89.25,89.25,0,0,1-1,13.67m-33.94-22.38c-1.49-12.18-12.64-21.13-25.52-21.13-14.62,0-24.28,8-27.5,21.13Z"/>
        <path class="cls-1" d="M1696.52,2302.42l10.41-24.37c11.39,8.45,26.26,12.93,41.12,12.93,10.91,0,17.84-4.23,17.84-9.95-.25-18.65-65.65-4.72-66.15-49.73-.24-22.87,20.07-40.53,48.81-40.53,17.09,0,34.19,4.23,46.33,13.93l-9.91,25.36c-9.42-7.21-24.78-12.68-37.9-12.68-8.93,0-14.87,4.23-14.87,9.7.25,17.65,66.15,8,66.89,51.71,0,22.63-19.82,39-48.06,39-20.81,0-39.89-5-54.51-15.41"/>
        <path class="cls-1" d="M1896.68,2313.85c-4.46,2.24-11.39,3.48-17.83,3.48-28.5,0-48.56-18.15-48.56-49.73v-41h-22.55v-33.32h22.55v-32.07h34.93v32.07h30v33.32h-30v39.28c0,11.44,8.67,18.65,18.83,18.65a37.26,37.26,0,0,0,10.9-1.74Z"/>
        <polygon class="cls-1" points="279.11 1412.87 250.34 1412.87 272.69 1372.16 310.82 1372.16 279.11 1412.87"/>
        <polygon class="cls-1" points="328.89 1412.87 300.12 1412.87 322.48 1372.16 360.6 1372.16 328.89 1412.87"/>
      </g>
    </g>
  </g>
</svg>
